<?xml version="1.0" encoding="UTF-8" standalone="no"?> <svg xmlns="http://www.w3.org/2000/svg" xmlns:svg="http://www.w3.org/2000/svg" version="1.1" id="svg1630" width="453.67621" height="120.20367" viewBox="0 0 453.67621 120.20367"><defs id="defs1634"></defs><g id="g1638" transform="matrix(1.3333333,0,0,-1.3333333,-5.9197864,125.52346)"><g id="g1640" transform="scale(0.1)"><path d="m 44.3984,524.32 c 0,-158.441 46.9219,-261.121 148.2426,-261.121 82.281,0 134.64,116.281 134.64,261.121 0,144.84 -37.402,261.801 -129.203,261.801 -91.797,0 -153.6796,-103.359 -153.6796,-261.801 z m 63.2426,-0.679 c 0,127.16 39.437,233.238 94.519,233.238 65.961,0 95.879,-106.078 95.879,-233.238 0,-127.84 -40.117,-229.161 -95.879,-229.161 -55.082,0 -94.519,101.321 -94.519,229.161 z m 473.961,229.16 c 11.558,0 19.039,2.039 19.039,13.597 0,11.563 -7.481,13.602 -19.039,13.602 H 380.32 c -11.558,0 -19.039,-2.039 -19.039,-13.602 0,-11.558 7.481,-13.597 19.039,-13.597 h 73.442 V 289.039 c 0,-11.559 6.121,-19.039 17.679,-19.039 h 21.079 c 10.882,0 15.64,7.48 15.64,19.039 v 463.762 z m 280.152,0 c 11.559,0 19.039,2.039 19.039,13.597 0,11.563 -7.48,13.602 -19.039,13.602 H 660.473 c -11.559,0 -19.039,-2.039 -19.039,-13.602 0,-11.558 7.48,-13.597 19.039,-13.597 h 73.441 V 289.039 c 0,-11.559 6.117,-19.039 17.68,-19.039 h 21.078 c 10.883,0 15.641,7.48 15.641,19.039 V 752.801 Z M 1068.47,457.68 c 11.55,0 19.03,2.039 19.03,13.601 0,11.559 -7.48,13.598 -19.03,13.598 h -78.884 v 248.883 c 0,11.558 4.758,19.039 15.634,19.039 h 83.64 c 11.56,0 19.05,1.359 19.05,12.918 0,11.562 -7.49,14.281 -19.05,14.281 H 950.824 c -10.879,0 -15.64,-7.48 -15.64,-19.039 V 289.039 c 0,-11.559 6.121,-19.039 17.679,-19.039 h 149.597 c 11.57,0 19.04,2.719 19.04,14.281 0,11.559 -7.47,12.918 -19.04,12.918 h -95.2 c -11.557,0 -17.674,8.84 -17.674,20.403 V 457.68 Z m 248.87,21.082 c 47.6,35.359 119.68,107.437 119.68,191.758 0,75.48 -42.16,109.48 -126.48,109.48 h -105.4 c -10.88,0 -15.64,-7.48 -15.64,-19.039 V 289.039 c 0,-11.559 6.12,-19.039 17.68,-19.039 h 21.08 c 10.88,0 15.64,7.48 15.64,19.039 v 444.723 c 0,11.558 4.76,19.039 15.64,19.039 h 27.88 c 57.12,0 89.76,-25.16 89.76,-80.922 0,-134.641 -109.48,-197.879 -109.48,-212.84 0,-3.398 1.36,-6.117 2.72,-8.84 L 1371.74,285.641 C 1377.86,274.762 1383.3,270 1394.86,270 h 29.92 c 7.48,0 10.88,4.078 10.88,9.52 0,3.402 -3.4,10.878 -6.12,14.96 l -112.2,184.282" style="fill:#ffffff;fill-opacity:1;fill-rule:nonzero;stroke:none" id="path1642"></path><path d="m 1674.7,189.402 c -3.8,-0.953 -6.79,-1.433 -8.96,-1.433 -10.85,0.82 -16.68,9.433 -17.5,25.84 -1.09,22.968 -1.63,66.445 -1.63,130.429 0,28.16 0.27,70.34 0.82,126.532 0.54,56.195 0.82,98.367 0.82,126.535 h 34.74 c 6.26,0 15.46,-0.551 27.58,-1.641 12.13,-1.098 21.18,-1.641 27.18,-1.641 15.53,0 23.3,9.981 23.3,29.942 0,10.933 -17.91,16.133 -53.73,15.586 h -59.47 v 156.98 c 0,59.953 14.49,89.934 43.47,89.934 13.67,0 29.46,-8.754 47.37,-26.25 17.91,-17.5 31.24,-26.25 40,-26.25 12.3,0 22.55,3.754 30.76,11.277 8.2,7.52 12.3,17.434 12.3,29.738 0,18.59 -12.42,33.903 -37.26,45.938 -20.48,10.113 -41.23,15.176 -62.25,15.176 -107.3,0 -160.94,-85.762 -160.94,-257.278 v -39.265 c -27.62,0 -41.83,0 -42.65,0 -19.42,-2.164 -29.12,-9.344 -29.12,-21.528 0,-14.085 14.35,-20.996 43.06,-20.718 h 28.71 V 173.203 c 0,-19.687 -7.04,-37.254 -21.12,-52.707 -14.09,-15.441 -21.12,-24.6718 -21.12,-27.6835 0,-11.207 5.46,-16.8125 16.4,-16.8125 10.12,0 39.65,13.6719 88.6,41.012 50.04,27.89 75.05,46.347 75.05,55.371 0,12.305 -5.42,18.457 -16.27,18.457 -1.63,0 -4.35,-0.473 -8.14,-1.438 z m 307.83,120.383 c -10.94,2.731 -21.74,5.332 -32.4,7.793 -11.76,6.012 -18.19,18.047 -19.28,36.094 -0.55,14.215 -0.82,33.902 -0.82,59.062 v 100.899 c 7.72,15.855 19.15,30.762 34.31,44.707 17.35,15.855 33.61,23.789 48.78,23.789 14.32,0 25.89,-7.731 34.71,-23.176 8.82,-15.449 15.84,-23.172 21.09,-23.172 14.04,0 21.07,13.125 21.07,39.375 0,25.153 -1.65,42.516 -4.96,52.09 -6.33,17.496 -19.7,26.25 -40.09,26.25 -34.72,0 -73.03,-27.07 -114.91,-81.211 0,9.024 1.03,22.356 3.08,39.988 2.05,17.637 3.08,30.829 3.08,39.582 0,11.754 -5.89,17.637 -17.64,17.637 -9.3,0 -23.73,-3.281 -43.27,-9.844 -19.56,-6.562 -34.66,-9.843 -45.33,-9.843 -23.52,0 -33.63,0.269 -30.35,0.82 -12.58,-1.641 -18.86,-7.664 -18.86,-18.066 0,-10.954 5.6,-17.93 16.81,-20.946 10.12,-2.461 20.23,-5.062 30.35,-7.797 11.21,-5.472 16.82,-16.558 16.82,-33.253 V 359.922 c 0,-20.805 -6.13,-34.629 -18.37,-41.473 -1.39,-0.82 -12.38,-3.695 -32.98,-8.621 -12.26,-2.742 -18.38,-9.586 -18.38,-20.531 0,-10.402 6.04,-16.695 18.11,-18.887 3.02,-0.547 13.04,-0.82 30.06,-0.82 h 128.85 14.82 c 21.41,-0.27 32.11,6.422 32.11,20.098 0,10.664 -5.47,17.363 -16.41,20.097 z m 400.32,313.36 c -25.43,18.046 -55.65,27.07 -90.65,27.07 -54.69,0 -100.22,-21.195 -136.58,-63.574 -34.45,-40.196 -51.68,-88.184 -51.68,-143.965 0,-49.77 16.54,-93.106 49.63,-130.02 34.45,-38.285 76.15,-57.422 125.1,-57.422 28.71,0 59.47,7.793 92.28,23.379 38.82,18.317 58.24,40.055 58.24,65.215 0,6.285 -3.55,9.434 -10.66,9.434 -3.01,0 -18.46,-6.973 -46.35,-20.918 -27.89,-13.946 -53.32,-20.918 -76.29,-20.918 -16.68,0 -33.77,7.383 -51.27,22.148 -17.5,14.766 -26.25,30.352 -26.25,46.758 0,25.152 17.91,44.297 53.73,57.422 33.36,10.664 66.72,21.328 100.08,31.992 35.82,16.133 53.73,40.328 53.73,72.598 0,33.633 -14.35,60.562 -43.06,80.801 z m -69.73,-122.227 c -8.76,-5.742 -28.85,-15.586 -60.29,-29.531 -27.07,-12.035 -45.81,-22.969 -56.2,-32.813 -3.01,14.766 -4.51,30.762 -4.51,47.989 0,30.898 5.33,56.871 16,77.929 13.67,27.071 34.45,40.606 62.34,40.606 16.95,0 32.82,-5.743 47.58,-17.227 15.59,-12.305 23.38,-26.801 23.38,-43.476 0,-16.407 -9.43,-30.903 -28.3,-43.477 z m 345.76,34.043 c 1.64,-7.113 7.11,-10.664 16.41,-10.664 6.56,0 19,16.543 37.32,49.629 18.32,33.082 27.48,54 27.48,62.754 0,9.293 -5.47,13.945 -16.4,13.945 -6.02,0 -12.17,-3.281 -18.46,-9.844 -6.29,-6.562 -13.54,-9.843 -21.74,-9.843 -8.75,0 -22.01,3.281 -39.79,9.843 -17.77,6.563 -31.72,9.844 -41.83,9.844 -34.45,0 -63.58,-10.664 -87.36,-31.992 -24.89,-22.149 -37.33,-50.18 -37.33,-84.082 0,-36.371 16.82,-63.574 50.45,-81.621 31.44,-11.215 62.75,-22.422 93.93,-33.633 33.9,-12.305 50.86,-29.809 50.86,-52.5 0,-20.238 -7.39,-36.781 -22.15,-49.629 -14.22,-11.762 -31.58,-17.637 -52.09,-17.637 -21.06,0 -41.16,10.524 -60.3,31.582 9.3,13.946 13.95,26.93 13.95,38.965 0,10.934 -4.51,20.231 -13.54,27.891 -9.02,7.652 -19,11.484 -29.94,11.484 -37.46,0 -56.19,-19.008 -56.19,-57.012 0,-27.07 16,-49.769 47.99,-68.086 27.34,-15.585 55.64,-23.378 84.9,-23.378 42.66,0 79.02,11.074 109.1,33.222 33.36,24.61 50.04,57.559 50.04,98.848 0,37.734 -17.77,66.172 -53.32,85.312 -2.46,1.364 -35.41,12.985 -98.84,34.864 -35.28,12.304 -52.92,29.121 -52.92,50.449 0,16.133 6.98,28.98 20.92,38.555 12.31,8.472 26.93,12.714 43.89,12.714 15.59,0 28.64,-5.812 39.17,-17.429 10.52,-11.629 15.79,-25.367 15.79,-41.223 z m 534.43,-101.309 c 0.55,18.59 0.82,32.672 0.82,42.246 0,54.961 -7.24,95.7 -21.73,122.227 -20.24,36.914 -56.75,55.371 -109.52,55.371 -41.83,0 -80.12,-18.187 -114.84,-54.551 v 244.864 c 0,20.777 6.97,38.894 20.92,54.343 13.94,15.446 20.92,24.407 20.92,26.868 0,10.933 -5.48,16.406 -16.41,16.406 -10.66,0 -59.61,-24.629 -146.84,-73.871 -11.21,-6.297 -16.81,-14.231 -16.81,-23.805 0,-11.223 5.46,-16.828 16.4,-16.828 15.86,0 24.88,-0.551 27.07,-1.641 5.47,-3.011 8.21,-12.043 8.21,-27.09 V 359.883 c 0,-20.797 -5.89,-34.613 -17.64,-41.453 -1.37,-0.821 -12.17,-3.555 -32.4,-8.207 -11.49,-3.012 -17.23,-9.993 -17.23,-20.934 0,-10.125 6.01,-16.418 18.05,-18.879 3,-0.547 12.85,-0.82 29.53,-0.82 h 126.33 14.35 c 21.88,-0.27 32.82,6.422 32.82,20.098 0,10.664 -5.41,17.363 -16.2,20.097 -10.81,2.731 -21.54,5.332 -32.2,7.793 -11.49,6.012 -17.78,18.047 -18.87,36.094 -0.27,9.023 -0.41,25.289 -0.41,48.808 0,5.192 -0.2,14.008 -0.61,26.458 -0.41,12.437 -0.62,22.074 -0.62,28.914 0,38.554 4.63,67.535 13.91,86.953 12.81,27.34 36,41.015 69.55,41.015 35.18,0 58.09,-16.156 68.73,-48.461 5.45,-17.254 8.04,-48.054 7.77,-92.41 v -85.008 c -0.27,-20.808 -6.15,-34.632 -17.64,-41.48 -1.64,-0.82 -12.44,-3.695 -32.4,-8.625 -11.48,-2.742 -17.22,-9.586 -17.22,-20.531 0,-10.133 6.01,-16.434 18.04,-18.895 3.01,-0.547 12.85,-0.82 29.53,-0.82 h 125.51 15.18 c 21.87,-0.27 32.81,6.422 32.81,20.098 0,10.664 -5.4,17.363 -16.2,20.097 -10.81,2.731 -21.53,5.332 -32.2,7.793 -11.48,6.012 -17.64,18.047 -18.46,36.094 -0.55,7.652 -0.82,20.918 -0.82,39.785 0,8.203 0.27,21.598 0.82,40.195" style="fill:#ffffff;fill-opacity:1;fill-rule:nonzero;stroke:none" id="path1644"></path><path d="m 3372.47,272.5 c 38.38,0 69.5,31.117 69.5,69.5 0,38.383 -31.12,69.5 -69.5,69.5 -38.39,0 -69.5,-31.117 -69.5,-69.5 0,-38.383 31.11,-69.5 69.5,-69.5 z" style="fill:none;stroke:#ffffff;stroke-width:10;stroke-linecap:butt;stroke-linejoin:miter;stroke-miterlimit:4;stroke-dasharray:none;stroke-opacity:1" id="path1646"></path><path d="m 3371.68,337.594 c 11,0 14.48,-3.59 14.48,-13.125 v -1.797 c 0,-8.977 0.23,-14.922 1.35,-18.067 h 13.23 c -0.79,4.375 -1.12,10.997 -1.12,17.954 v 1.796 c 0,9.875 -2.92,15.93 -10.77,18.844 6.4,2.242 12.22,7.285 12.22,17.953 0,13.465 -10.08,20.528 -24.34,20.528 h -29.95 v -77.075 h 13.34 v 32.989 z m -11.56,33.215 h 14.82 c 7.29,0 12.57,-3.254 12.57,-10.778 0,-9.32 -6.4,-11.566 -14.71,-11.566 h -12.68 v 22.344" style="fill:#ffffff;fill-opacity:1;fill-rule:nonzero;stroke:none" id="path1648"></path><path d="m 1824.19,118.199 c 0,3.903 -0.75,7.25 -2.25,10.051 -1.5,2.797 -3.35,5.074 -5.55,6.824 -2.2,1.75 -4.52,3.024 -6.97,3.824 -2.45,0.801 -4.63,1.204 -6.53,1.204 -3.5,0 -6.57,-0.356 -9.22,-1.051 -2.65,-0.703 -4.95,-1.653 -6.9,-2.852 -1.95,-1.199 -3.6,-2.574 -4.95,-4.125 -1.35,-1.551 -2.43,-3.125 -3.23,-4.722 v 9.597 c 0,1.699 -0.2,2.75 -0.6,3.153 l -23.1,-5.551 v -4.199 h 2.25 c 5.8,0 8.7,-1.856 8.7,-5.551 V 84.1484 c 0,-4.8984 -3,-7.3476 -9,-7.3476 V 72 h 33.9 v 4.8008 c -7.7,0 -11.55,2.25 -11.55,6.75 v 28.5002 c 0,12.996 5.3,19.5 15.9,19.5 10.5,0 15.75,-7.301 15.75,-21.903 V 83.5508 c 0,-4.5 -3.45,-6.75 -10.35,-6.75 V 72 h 34.05 v 4.8008 c -6.9,0 -10.35,2.0508 -10.35,6.1484 z m 45.38,19.352 c -4.15,-1.703 -7.75,-4.125 -10.8,-7.278 -3.05,-3.148 -5.48,-6.972 -7.28,-11.472 -1.8,-4.5 -2.7,-9.551 -2.7,-15.153 0,-4.6988 0.8,-9.148 2.4,-13.3472 1.6,-4.1992 3.85,-7.875 6.75,-11.0313 2.9,-3.1484 6.43,-5.6484 10.58,-7.5 4.15,-1.8398 8.72,-2.7695 13.72,-2.7695 4.4,0 8.63,0.8516 12.68,2.5508 4.05,1.6992 7.6,4.1211 10.65,7.2695 3.05,3.1563 5.5,6.9805 7.35,11.4805 1.85,4.5 2.77,9.5469 2.77,15.1482 0,4.699 -0.8,9.153 -2.4,13.352 -1.6,4.199 -3.85,7.875 -6.75,11.023 -2.9,3.153 -6.37,5.649 -10.42,7.5 -4.05,1.852 -8.48,2.778 -13.28,2.778 -4.7,0 -9.12,-0.852 -13.27,-2.551 z m 22.57,-6.668 c 2.5,-2.442 4.43,-5.461 5.78,-9.055 1.35,-3.59 2.22,-7.48 2.62,-11.668 0.4,-4.191 0.6,-7.98 0.6,-11.3709 0,-1.7969 -0.17,-4.0899 -0.52,-6.8828 -0.35,-2.793 -1.15,-5.461 -2.4,-8.004 -1.25,-2.5468 -3.1,-4.7421 -5.55,-6.582 -2.45,-1.8515 -5.73,-2.7695 -9.83,-2.7695 -4.3,0 -7.72,1.2187 -10.27,3.668 -2.55,2.4375 -4.5,5.457 -5.85,9.0468 -1.35,3.5938 -2.23,7.461 -2.63,11.5977 -0.4,4.1407 -0.6,7.9567 -0.6,11.4497 0,1.792 0.18,4.062 0.53,6.804 0.35,2.742 1.17,5.41 2.47,8.004 1.3,2.594 3.2,4.813 5.7,6.66 2.5,1.848 5.85,2.77 10.05,2.77 4.1,0 7.4,-1.223 9.9,-3.668 z m 56.25,29.765 -4.8,-0.597 c -0.6,-3 -1.45,-5.875 -2.55,-8.625 -1.1,-2.754 -2.4,-5.227 -3.9,-7.426 -1.5,-2.199 -3.25,-4.027 -5.25,-5.477 -2,-1.449 -4.2,-2.375 -6.6,-2.773 l -0.6,-4.801 h 10.35 V 85.3516 c 0,-5.5 1.53,-9.5 4.58,-12 3.05,-2.5 7.17,-3.75 12.37,-3.75 3.3,0 6.13,0.4492 8.48,1.3476 2.35,0.9024 4.32,2.1719 5.92,3.8203 1.6,1.6524 2.9,3.6289 3.9,5.9297 1,2.3008 1.8,4.8516 2.4,7.6524 l -3.6,1.1992 c -0.6,-3.3008 -2.12,-6.0274 -4.57,-8.1758 -2.45,-2.1562 -5.18,-3.2266 -8.18,-3.2266 -2,0 -3.52,0.3204 -4.57,0.9727 -1.05,0.6484 -1.83,1.5039 -2.33,2.5547 -0.5,1.0508 -0.8,2.2226 -0.9,3.5234 -0.1,1.3008 -0.15,2.5508 -0.15,3.75 v 41.9998 h 20.1 v 7.199 c -1,-0.296 -2.1,-0.574 -3.3,-0.824 -1.2,-0.25 -2.55,-0.375 -4.05,-0.375 h -12.75 z m 111.9,-19.949 -25.5,-5.551 v -4.199 c 8.1,0 12.15,-2.051 12.15,-6.148 V 69 c 0,-11.8008 -2.8,-17.6992 -8.4,-17.6992 -1.1,0 -1.8,0.4492 -2.1,1.3476 -0.3,0.9024 -0.55,1.8711 -0.75,2.9219 -0.2,1.0508 -0.52,2.0313 -0.97,2.9297 -0.45,0.8984 -1.43,1.3516 -2.93,1.3516 -4.5,0 -6.75,-2.25 -6.75,-6.75 0,-6 3.45,-9 10.35,-9 3.6,0 6.93,0.8476 9.98,2.5468 3.05,1.7032 5.67,3.9532 7.87,6.75 2.2,2.8008 3.93,5.9219 5.18,9.3711 1.25,3.4493 1.87,6.9297 1.87,10.4297 z m -15.75,26.699 c 0,-6.5 2.85,-9.75 8.55,-9.75 6,0 9,3.25 9,9.75 0,6.098 -2.8,9.153 -8.4,9.153 -6.1,0 -9.15,-3.055 -9.15,-9.153 z m 101.1,-29.25 -25.5,-1.796 0.6,-4.204 c 7.7,0 11.55,-1.796 11.55,-5.398 V 94.5 c -3.1,-10.9023 -9,-16.3516 -17.7,-16.3516 -3.3,0 -5.87,0.5235 -7.72,1.5704 -1.85,1.0546 -3.18,2.4804 -3.98,4.2812 -0.8,1.8008 -1.27,3.8477 -1.42,6.1484 -0.15,2.3008 -0.23,4.75 -0.23,7.3516 v 40.648 l -24.3,-1.796 0.6,-4.204 c 6.9,0 10.35,-1.796 10.35,-5.398 V 94.5 c 0,-4.7031 0.4,-8.6016 1.2,-11.6992 0.8,-3.1016 2.1,-5.6016 3.9,-7.5 1.8,-1.9024 4.13,-3.2305 6.98,-3.9805 2.85,-0.75 6.32,-1.1211 10.42,-1.1211 3.3,0 6.1,0.25 8.4,0.75 2.3,0.5 4.33,1.25 6.08,2.25 1.75,1 3.25,2.2227 4.5,3.6719 1.25,1.4492 2.42,3.0781 3.52,4.8789 v -6.1484 c 0,-2.1016 0.2,-3.5 0.6,-4.2032 l 24.3,3 -1.2,4.3516 c -7.3,0.3984 -10.95,2.3984 -10.95,6 z m 68.25,-19.347 c 0,5.797 -1,12.656 -3,20.566 -1.2,-0.387 -2.32,-0.847 -3.37,-1.383 -1.05,-0.531 -1.98,-1.089 -2.78,-1.671 -4.3,2.421 -8.75,3.636 -13.35,3.636 -3.8,0 -7.08,-0.523 -9.82,-1.57 -2.76,-1.051 -5.03,-2.473 -6.83,-4.266 -1.8,-1.797 -3.13,-3.918 -3.97,-6.363 -0.86,-2.445 -1.28,-5.062 -1.28,-7.859 0,-2.895 0.72,-5.414 2.18,-7.555 1.44,-2.148 3.27,-4.02 5.47,-5.617 2.2,-1.594 4.58,-2.965 7.13,-4.114 2.55,-1.148 4.92,-2.07 7.12,-2.7691 2.8,-0.9961 5.27,-1.9218 7.43,-2.7695 2.14,-0.8476 3.92,-1.7969 5.32,-2.8437 1.4,-1.0508 2.48,-2.2696 3.23,-3.668 0.75,-1.3945 1.12,-3.1445 1.12,-5.2383 0,-6.8867 -4.45,-10.3281 -13.35,-10.3281 -2.6,0 -4.95,0.3203 -7.05,0.9726 -2.1,0.6485 -4,1.75 -5.7,3.3008 -1.7,1.543 -3.25,3.586 -4.65,6.1289 -1.4,2.5469 -2.7,5.7657 -3.9,9.6563 h -4.35 c 0,-4.4922 0.2,-8.7071 0.6,-12.6485 0.4,-3.9492 1.05,-8.0078 1.95,-12.1992 4,0.4024 7.2,1.6016 9.6,3.6016 4,-2.8008 8.7,-4.1992 14.1,-4.1992 3,0.3984 5.87,1.1797 8.63,2.3203 2.74,1.1484 5.12,2.6289 7.12,4.4297 2,1.7968 3.6,3.9726 4.8,6.5234 1.2,2.5508 1.8,5.4219 1.8,8.625 0,3.6016 -0.97,6.625 -2.92,9.074 -1.95,2.449 -4.38,4.551 -7.28,6.301 -2.9,1.746 -6.07,3.273 -9.52,4.574 -3.45,1.301 -6.63,2.574 -9.53,3.824 -2.9,1.25 -5.32,2.625 -7.27,4.125 -1.95,1.5 -2.93,3.301 -2.93,5.403 0,3.695 1.22,6.347 3.68,7.949 2.44,1.598 5.27,2.398 8.47,2.398 8.1,0 14.6,-5.449 19.5,-16.347 z m 36.75,41.847 -4.8,-0.597 c -0.6,-3 -1.45,-5.875 -2.55,-8.625 -1.1,-2.754 -2.4,-5.227 -3.9,-7.426 -1.5,-2.199 -3.25,-4.027 -5.25,-5.477 -2,-1.449 -4.2,-2.375 -6.6,-2.773 l -0.6,-4.801 h 10.35 V 85.3516 c 0,-5.5 1.52,-9.5 4.57,-12 3.05,-2.5 7.18,-3.75 12.38,-3.75 3.3,0 6.12,0.4492 8.47,1.3476 2.35,0.9024 4.33,2.1719 5.93,3.8203 1.6,1.6524 2.9,3.6289 3.9,5.9297 1,2.3008 1.8,4.8516 2.4,7.6524 l -3.6,1.1992 c -0.6,-3.3008 -2.13,-6.0274 -4.58,-8.1758 -2.45,-2.1562 -5.17,-3.2266 -8.17,-3.2266 -2,0 -3.53,0.3204 -4.58,0.9727 -1.05,0.6484 -1.82,1.5039 -2.32,2.5547 -0.5,1.0508 -0.8,2.2226 -0.9,3.5234 -0.1,1.3008 -0.15,2.5508 -0.15,3.75 v 41.9998 h 20.1 v 7.199 c -1,-0.296 -2.1,-0.574 -3.3,-0.824 -1.2,-0.25 -2.55,-0.375 -4.05,-0.375 h -12.75 z m 108.97,-23.097 c -4.15,-1.703 -7.75,-4.125 -10.8,-7.278 -3.05,-3.148 -5.47,-6.972 -7.27,-11.472 -1.8,-4.5 -2.7,-9.551 -2.7,-15.153 0,-4.6988 0.8,-9.148 2.4,-13.3472 1.6,-4.1992 3.85,-7.875 6.75,-11.0313 2.9,-3.1484 6.42,-5.6484 10.57,-7.5 4.15,-1.8398 8.73,-2.7695 13.73,-2.7695 4.4,0 8.62,0.8516 12.67,2.5508 4.05,1.6992 7.6,4.1211 10.65,7.2695 3.05,3.1563 5.5,6.9805 7.35,11.4805 1.85,4.5 2.78,9.5469 2.78,15.1482 0,4.699 -0.8,9.153 -2.4,13.352 -1.6,4.199 -3.85,7.875 -6.75,11.023 -2.9,3.153 -6.38,5.649 -10.43,7.5 -4.05,1.852 -8.47,2.778 -13.27,2.778 -4.7,0 -9.13,-0.852 -13.28,-2.551 z m 22.58,-6.668 c 2.5,-2.442 4.42,-5.461 5.77,-9.055 1.35,-3.59 2.23,-7.48 2.63,-11.668 0.4,-4.191 0.6,-7.98 0.6,-11.3709 0,-1.7969 -0.18,-4.0899 -0.53,-6.8828 -0.35,-2.793 -1.15,-5.461 -2.4,-8.004 -1.25,-2.5468 -3.1,-4.7421 -5.55,-6.582 -2.45,-1.8515 -5.72,-2.7695 -9.82,-2.7695 -4.3,0 -7.73,1.2187 -10.28,3.668 -2.55,2.4375 -4.5,5.457 -5.85,9.0468 -1.35,3.5938 -2.22,7.461 -2.62,11.5977 -0.4,4.1407 -0.6,7.9567 -0.6,11.4497 0,1.792 0.17,4.062 0.52,6.804 0.35,2.742 1.18,5.41 2.48,8.004 1.3,2.594 3.2,4.813 5.7,6.66 2.5,1.848 5.85,2.77 10.05,2.77 4.1,0 7.4,-1.223 9.9,-3.668 z m 79.8,-1.133 c -0.4,-0.699 -0.6,-1.949 -0.6,-3.75 0,-4 2.2,-6 6.6,-6 4.9,0 7.35,3.051 7.35,9.148 0,7.301 -4.05,10.954 -12.15,10.954 -2.2,0 -4.33,-0.579 -6.38,-1.727 -2.05,-1.152 -3.9,-2.551 -5.55,-4.199 -1.65,-1.653 -3.02,-3.403 -4.12,-5.25 -1.1,-1.852 -1.8,-3.43 -2.1,-4.727 l -0.75,0.602 v 15.301 c -8,-1.704 -16.1,-3.356 -24.3,-4.954 v -4.199 c 7.3,0 10.95,-3.851 10.95,-11.551 V 85.9492 c 0,-6.0976 -3.45,-9.1484 -10.35,-9.1484 V 72 h 35.85 v 4.8008 c -8.1,0 -12.15,2.8476 -12.15,8.5508 v 17.0974 c 0.1,2.199 0.32,4.852 0.67,7.949 0.35,3.098 1.05,6.079 2.1,8.926 1.05,2.852 2.5,5.301 4.35,7.352 1.85,2.047 4.38,3.074 7.58,3.074 z m 46.35,-49.1992 c -4.2,0 -7.23,0.4726 -9.08,1.4258 -1.85,0.9492 -2.77,2.5703 -2.77,4.875 0,3.7968 2.65,5.9453 7.95,6.4492 3.4,-0.8008 5.85,-1.1992 7.35,-1.1992 10.8,0 18.55,1.9492 23.25,5.8476 4.7,3.9028 7.05,10.0508 7.05,18.4488 0,1.801 -0.35,3.75 -1.05,5.852 -0.7,2.102 -1.75,4 -3.15,5.699 1.6,1.899 3.55,3 5.85,3.301 1.3,-1.602 3.05,-2.398 5.25,-2.398 3.4,0 5.1,2.046 5.1,6.148 0,3.801 -2.21,5.699 -6.62,5.699 -2.6,0 -5.04,-0.551 -7.29,-1.648 -2.26,-1.102 -4.29,-3 -6.09,-5.699 -5.41,4.5 -11.68,6.75 -18.79,6.75 -4.51,0 -8.47,-0.629 -11.88,-1.875 -3.41,-1.254 -6.26,-2.977 -8.57,-5.176 -2.31,-2.203 -4.03,-4.727 -5.19,-7.574 -1.15,-2.852 -1.72,-5.879 -1.72,-9.079 0,-9.5 4.05,-16.398 12.15,-20.6988 -1.8,0 -3.48,-0.375 -5.03,-1.125 -1.55,-0.75 -2.9,-1.75 -4.05,-3 -1.15,-1.25 -2.05,-2.6758 -2.7,-4.2734 -0.65,-1.6016 -0.97,-3.25 -0.97,-4.9492 0,-6.4024 3.4,-10.4532 10.2,-12.1524 -9.2,-2.8984 -13.8,-7.3476 -13.8,-13.3476 0,-4.7032 2.07,-8.2032 6.22,-10.5 4.15,-2.3008 9.48,-3.4532 15.98,-3.4532 h 16.05 c 3.9,0 7.5,0.4532 10.8,1.3516 3.3,0.8984 6.12,2.1992 8.47,3.8984 2.35,1.7032 4.2,3.75 5.55,6.1524 1.35,2.3984 2.03,5.0976 2.03,8.0976 0,3.2032 -0.58,5.9532 -1.73,8.25 -1.15,2.3008 -2.75,4.1719 -4.8,5.6211 -2.05,1.4493 -4.42,2.5313 -7.12,3.2305 -2.7,0.6992 -5.6,1.0508 -8.7,1.0508 z m 20.4,32.7622 c 0,-10.141 -4.88,-15.2114 -14.63,-15.2114 -8.95,0 -13.42,6.7264 -13.42,20.1794 0,11.344 4.67,17.02 14.02,17.02 9.35,0 14.03,-7.332 14.03,-21.988 z M 2519.59,69 c 12.6,0 18.9,-2.8516 18.9,-8.5508 0,-8.5 -6.6,-12.75 -19.8,-12.75 h -4.65 c -5.8,0 -10.38,1.0313 -13.73,3.0703 -3.35,2.0586 -5.02,5.0313 -5.02,8.9297 0,2.8008 0.95,4.8711 2.85,6.2227 1.9,1.3476 4.6,2.3789 8.1,3.0781 z m 95.7,49.801 c 0,7.597 -1.86,13.051 -5.57,16.347 -3.71,3.301 -9.98,4.954 -18.81,4.954 -3.31,0 -6.54,-0.504 -9.7,-1.5 -3.16,-1.004 -5.97,-2.329 -8.42,-3.977 -2.46,-1.648 -4.42,-3.578 -5.87,-5.773 -1.46,-2.204 -2.18,-4.555 -2.18,-7.051 0,-4.801 2,-7.199 6,-7.199 5.3,0 7.95,1.996 7.95,6 0,1.796 -0.4,3.398 -1.2,4.796 0,2.102 0.3,3.75 0.9,4.954 0.6,1.199 1.45,2.046 2.56,2.546 1.11,0.5 2.39,0.801 3.85,0.903 1.46,0.097 3.09,0.148 4.91,0.148 8.15,0 12.23,-5.25 12.23,-15.75 v -6.148 c -26.4,-4.801 -39.6,-13.5002 -39.6,-26.1018 0,-10.5 5.49,-15.75 16.5,-15.75 8.4,0 16.5,3.4492 24.3,10.3516 1.59,-6.9024 5.45,-10.3516 11.55,-10.3516 6.8,0 11.05,2.8516 12.75,8.5508 l -1.8,1.1992 c -1.7,-1.1992 -3.35,-1.8008 -4.95,-1.8008 -3.6,0 -5.4,2 -5.4,6 z m -12.75,-24.9026 c -0.21,-2 -0.61,-3.9726 -1.21,-5.9218 -0.61,-1.9532 -1.54,-3.7305 -2.79,-5.3282 -1.26,-1.5976 -2.89,-2.8789 -4.9,-3.8281 -2.01,-0.9492 -4.58,-1.4219 -7.7,-1.4219 -6.84,0 -10.25,3.4532 -10.25,10.3516 0,3.3008 0.77,6.0742 2.33,8.3242 1.56,2.25 3.62,4.0738 6.19,5.4768 2.56,1.398 5.43,2.496 8.6,3.301 3.16,0.796 6.41,1.398 9.73,1.796 z m 104.25,24.3006 c 0,3.903 -0.75,7.25 -2.25,10.051 -1.5,2.797 -3.36,5.074 -5.55,6.824 -2.21,1.75 -4.53,3.024 -6.98,3.824 -2.45,0.801 -4.63,1.204 -6.52,1.204 -3.51,0 -6.58,-0.356 -9.23,-1.051 -2.65,-0.703 -4.95,-1.653 -6.9,-2.852 -1.95,-1.199 -3.6,-2.574 -4.95,-4.125 -1.35,-1.551 -2.43,-3.125 -3.22,-4.722 v 9.597 c 0,1.699 -0.21,2.75 -0.6,3.153 l -23.1,-5.551 v -4.199 h 2.25 c 5.79,0 8.7,-1.856 8.7,-5.551 V 84.1484 c 0,-4.8984 -3,-7.3476 -9,-7.3476 V 72 h 33.9 v 4.8008 c -7.71,0 -11.55,2.25 -11.55,6.75 v 28.5002 c 0,12.996 5.29,19.5 15.9,19.5 10.5,0 15.75,-7.301 15.75,-21.903 V 83.5508 c 0,-4.5 -3.45,-6.75 -10.35,-6.75 V 72 h 34.05 v 4.8008 c -6.9,0 -10.35,2.0508 -10.35,6.1484 z m 49.65,21.903 -22.95,-4.954 v -4.199 c 6.39,0 9.6,-4.25 9.6,-12.75 V 86.5508 c 0,-6.5039 -3.66,-9.75 -10.95,-9.75 V 72 h 36.45 v 4.8008 c -8.1,0 -12.15,3.0508 -12.15,9.1484 z m -16.35,27.296 c 0,-6.5 2.85,-9.75 8.55,-9.75 6.09,0 9.15,3.25 9.15,9.75 0,6.098 -2.85,9.153 -8.55,9.153 -6.11,0 -9.15,-3.055 -9.15,-9.153 z m 96.59,-79.648 c -4.2,-6.4023 -9.9,-9.6016 -17.1,-9.6016 -3.6,0 -6.75,0.7735 -9.45,2.3282 -2.7,1.5468 -4.9,3.6953 -6.6,6.4492 -1.7,2.75 -2.97,5.9726 -3.82,9.6758 -0.85,3.6954 -1.28,7.6484 -1.28,11.8474 0,3 0.35,6.074 1.05,9.227 0.7,3.148 1.75,6.023 3.15,8.625 1.4,2.597 3.23,4.722 5.48,6.375 2.25,1.648 4.87,2.472 7.87,2.472 2.1,0 4.15,-0.48 6.15,-1.433 2,-0.961 3,-2.496 3,-4.613 0,-0.911 -0.1,-1.891 -0.3,-2.954 -0.2,-1.058 -0.3,-1.738 -0.3,-2.039 0,-4.839 2.2,-7.257 6.6,-7.257 2.2,0 4.18,0.769 5.93,2.324 1.75,1.547 2.62,3.375 2.62,5.472 0,2.2 -0.6,4.25 -1.8,6.153 -1.2,1.898 -2.77,3.523 -4.72,4.875 -1.95,1.347 -4.18,2.398 -6.68,3.148 -2.5,0.75 -5,1.125 -7.5,1.125 -5.9,0 -11.07,-0.996 -15.52,-2.996 -4.45,-1.996 -8.13,-4.664 -11.03,-8.008 -2.9,-3.34 -5.07,-7.257 -6.52,-11.75 -1.45,-4.488 -2.18,-9.226 -2.18,-14.218 0,-4.6918 0.68,-9.1059 2.03,-13.2465 1.35,-4.1407 3.3,-7.7578 5.85,-10.8516 2.55,-3.0898 5.67,-5.5195 9.37,-7.2578 3.7,-1.75 7.9,-2.6211 12.6,-2.6211 2.6,0 5.28,0.3008 8.03,0.8984 2.75,0.6016 5.37,1.5704 7.87,2.9219 2.5,1.3516 4.75,3.0508 6.75,5.1016 2,2.0469 3.55,4.5273 4.65,7.4297 z m 21,-41.25 c 6.9,3.6016 12.18,7.6992 15.83,12.3008 3.65,4.5976 5.47,10.1992 5.47,16.8008 0,10.1992 -4.25,15.2968 -12.75,15.2968 -6.5,0 -9.75,-3.4492 -9.75,-10.3476 0,-5.3008 3.05,-7.9492 9.15,-7.9492 2.4,0 3.6,-1.3008 3.6,-3.9024 0,-1.0976 -0.07,-2.2695 -0.22,-3.5273 -0.15,-1.2422 -0.68,-2.6211 -1.58,-4.1211 -0.9,-1.5 -2.3,-3.1524 -4.2,-4.9492 -1.9,-1.8008 -4.55,-3.8008 -7.95,-6 z m 114.6,135.449 -23.7,-4.801 v -4.347 c 6.9,0 10.35,-4.254 10.35,-12.75 V 95.1016 c 0,-9.4024 -0.6,-17.3008 -1.8,-23.7032 l 3.6,-1.1992 c 4.1,3.1992 6.55,6.0508 7.35,8.5508 5.5,-5.6992 13.2,-8.5508 23.1,-8.5508 4.6,0 8.85,0.9492 12.75,2.8516 3.9,1.8984 7.22,4.5195 9.98,7.875 2.74,3.3476 4.89,7.2734 6.45,11.7734 1.54,4.5 2.32,9.3518 2.32,14.5508 0,4.598 -0.75,8.898 -2.25,12.898 -1.5,4 -3.58,7.477 -6.22,10.426 -2.66,2.949 -5.81,5.274 -9.45,6.977 -3.66,1.699 -7.58,2.551 -11.78,2.551 -8.6,0 -15.5,-4.254 -20.7,-12.75 z m -0.6,-75.301 c 0,2.704 0.17,5.528 0.53,8.477 0.34,2.949 1.12,5.699 2.32,8.25 1.2,2.551 2.9,4.648 5.1,6.301 2.2,1.648 5.2,2.472 9,2.472 4.2,0 7.62,-0.972 10.28,-2.921 2.64,-1.954 4.74,-4.403 6.3,-7.352 1.54,-2.949 2.62,-6.227 3.22,-9.824 0.6,-3.602 0.9,-7.051 0.9,-10.352 0,-3.3006 -0.35,-6.5506 -1.05,-9.7498 -0.7,-3.1992 -1.8,-6.0508 -3.3,-8.5508 -1.5,-2.5 -3.4,-4.5273 -5.7,-6.0781 -2.3,-1.5508 -5,-2.3203 -8.1,-2.3203 -4.5,0 -8.02,0.9492 -10.57,2.8516 -2.55,1.8984 -4.5,4.2226 -5.85,6.9726 -1.35,2.75 -2.21,5.6758 -2.55,8.7774 -0.36,3.0976 -0.53,5.7968 -0.53,8.0974 z m 124.95,1.204 c 0.4,0.695 0.6,1.894 0.6,3.597 -0.7,6.199 -2.08,11.176 -4.13,14.926 -2.05,3.75 -4.45,6.648 -7.2,8.699 -2.75,2.051 -5.7,3.399 -8.85,4.051 -3.15,0.648 -6.12,0.977 -8.92,0.977 -4.7,0 -8.98,-1.028 -12.83,-3.079 -3.85,-2.05 -7.12,-4.75 -9.82,-8.097 -2.7,-3.352 -4.78,-7.227 -6.23,-11.625 -1.45,-4.403 -2.17,-8.953 -2.17,-13.653 0,-4.7964 0.7,-9.2496 2.1,-13.3472 1.4,-4.1016 3.45,-7.6524 6.15,-10.6524 2.7,-3 6.05,-5.3281 10.05,-6.9765 4,-1.6524 8.65,-2.4727 13.95,-2.4727 13,0 22.3,5.8516 27.9,17.5508 l -3.6,2.5508 c -2.4,-3.3008 -5.23,-6.0547 -8.48,-8.25 -3.25,-2.1992 -7.12,-3.3008 -11.62,-3.3008 -3.4,0 -6.48,0.6719 -9.23,2.0234 -2.75,1.3516 -5.1,3.1993 -7.05,5.5508 -1.95,2.3477 -3.45,5.1485 -4.5,8.4024 -1.05,3.2461 -1.57,6.8244 -1.57,10.7224 0,1.598 1,2.403 3,2.403 z m -41.85,4.796 c -2.4,0 -3.6,0.653 -3.6,1.954 0,2.496 0.37,4.949 1.12,7.347 0.75,2.403 1.85,4.524 3.3,6.375 1.45,1.852 3.18,3.352 5.18,4.5 2,1.149 4.25,1.727 6.75,1.727 4.5,0 7.95,-1.477 10.35,-4.426 2.4,-2.949 3.8,-6.523 4.2,-10.727 0,-4.5 -2.2,-6.75 -6.6,-6.75 z m 75.3,48 -4.8,-0.597 c -0.6,-3 -1.45,-5.875 -2.55,-8.625 -1.1,-2.754 -2.4,-5.227 -3.9,-7.426 -1.5,-2.199 -3.25,-4.027 -5.25,-5.477 -2,-1.449 -4.2,-2.375 -6.6,-2.773 l -0.6,-4.801 h 10.35 V 85.3516 c 0,-5.5 1.52,-9.5 4.57,-12 3.05,-2.5 7.18,-3.75 12.38,-3.75 3.3,0 6.12,0.4492 8.47,1.3476 2.35,0.9024 4.33,2.1719 5.93,3.8203 1.6,1.6524 2.9,3.6289 3.9,5.9297 1,2.3008 1.8,4.8516 2.4,7.6524 l -3.6,1.1992 c -0.6,-3.3008 -2.13,-6.0274 -4.58,-8.1758 -2.45,-2.1562 -5.17,-3.2266 -8.17,-3.2266 -2,0 -3.53,0.3204 -4.58,0.9727 -1.05,0.6484 -1.82,1.5039 -2.32,2.5547 -0.5,1.0508 -0.8,2.2226 -0.9,3.5234 -0.1,1.3008 -0.15,2.5508 -0.15,3.75 v 41.9998 h 20.1 v 7.199 c -1,-0.296 -2.1,-0.574 -3.3,-0.824 -1.2,-0.25 -2.55,-0.375 -4.05,-0.375 h -12.75 z m 51.9,0 -4.8,-0.597 c -0.6,-3 -1.45,-5.875 -2.55,-8.625 -1.11,-2.754 -2.4,-5.227 -3.9,-7.426 -1.5,-2.199 -3.25,-4.027 -5.25,-5.477 -2.01,-1.449 -4.2,-2.375 -6.6,-2.773 l -0.6,-4.801 h 10.35 V 85.3516 c 0,-5.5 1.52,-9.5 4.57,-12 3.05,-2.5 7.18,-3.75 12.38,-3.75 3.3,0 6.12,0.4492 8.47,1.3476 2.35,0.9024 4.33,2.1719 5.93,3.8203 1.59,1.6524 2.9,3.6289 3.9,5.9297 0.99,2.3008 1.8,4.8516 2.4,7.6524 l -3.6,1.1992 c -0.6,-3.3008 -2.13,-6.0274 -4.58,-8.1758 -2.45,-2.1562 -5.17,-3.2266 -8.17,-3.2266 -2.01,0 -3.53,0.3204 -4.58,0.9727 -1.05,0.6484 -1.82,1.5039 -2.32,2.5547 -0.51,1.0508 -0.81,2.2226 -0.9,3.5234 -0.1,1.3008 -0.15,2.5508 -0.15,3.75 v 41.9998 h 20.1 v 7.199 c -1,-0.296 -2.1,-0.574 -3.3,-0.824 -1.2,-0.25 -2.55,-0.375 -4.05,-0.375 h -12.75 z m 92.25,-52.796 c 0.39,0.695 0.6,1.894 0.6,3.597 -0.71,6.199 -2.08,11.176 -4.13,14.926 -2.05,3.75 -4.45,6.648 -7.2,8.699 -2.75,2.051 -5.7,3.399 -8.85,4.051 -3.15,0.648 -6.13,0.977 -8.92,0.977 -4.71,0 -8.98,-1.028 -12.83,-3.079 -3.85,-2.05 -7.12,-4.75 -9.82,-8.097 -2.7,-3.352 -4.78,-7.227 -6.23,-11.625 -1.45,-4.403 -2.17,-8.953 -2.17,-13.653 0,-4.7964 0.69,-9.2496 2.1,-13.3472 1.39,-4.1016 3.45,-7.6524 6.15,-10.6524 2.7,-3 6.04,-5.3281 10.05,-6.9765 3.99,-1.6524 8.64,-2.4727 13.95,-2.4727 12.99,0 22.29,5.8516 27.9,17.5508 l -3.6,2.5508 c -2.4,-3.3008 -5.23,-6.0547 -8.48,-8.25 -3.25,-2.1992 -7.12,-3.3008 -11.62,-3.3008 -3.41,0 -6.48,0.6719 -9.23,2.0234 -2.75,1.3516 -5.1,3.1993 -7.05,5.5508 -1.95,2.3477 -3.45,5.1485 -4.5,8.4024 -1.05,3.2461 -1.57,6.8244 -1.57,10.7224 0,1.598 0.99,2.403 3,2.403 z m -41.85,4.796 c -2.4,0 -3.6,0.653 -3.6,1.954 0,2.496 0.37,4.949 1.12,7.347 0.75,2.403 1.85,4.524 3.3,6.375 1.45,1.852 3.17,3.352 5.18,4.5 1.99,1.149 4.24,1.727 6.75,1.727 4.5,0 7.95,-1.477 10.35,-4.426 2.4,-2.949 3.79,-6.523 4.2,-10.727 0,-4.5 -2.21,-6.75 -6.6,-6.75 z m 98.84,17.102 c -0.4,-0.699 -0.6,-1.949 -0.6,-3.75 0,-4 2.2,-6 6.6,-6 4.9,0 7.35,3.051 7.35,9.148 0,7.301 -4.05,10.954 -12.15,10.954 -2.2,0 -4.32,-0.579 -6.37,-1.727 -2.05,-1.152 -3.9,-2.551 -5.55,-4.199 -1.65,-1.653 -3.03,-3.403 -4.13,-5.25 -1.1,-1.852 -1.8,-3.43 -2.1,-4.727 l -0.75,0.602 v 15.301 c -8,-1.704 -16.1,-3.356 -24.3,-4.954 v -4.199 c 7.3,0 10.95,-3.851 10.95,-11.551 V 85.9492 c 0,-6.0976 -3.45,-9.1484 -10.35,-9.1484 V 72 h 35.85 v 4.8008 c -8.1,0 -12.15,2.8476 -12.15,8.5508 v 17.0974 c 0.1,2.199 0.33,4.852 0.68,7.949 0.35,3.098 1.05,6.079 2.1,8.926 1.05,2.852 2.5,5.301 4.35,7.352 1.85,2.047 4.37,3.074 7.57,3.074 z m 54.9,-12.211 c 1.62,13.055 3.01,24.164 4.18,33.332 1.18,9.164 2.2,16.938 3.08,23.32 0.88,6.379 1.62,11.622 2.2,15.731 0.59,4.101 1.03,7.551 1.32,10.34 0.3,2.781 0.52,5.168 0.66,7.148 0.15,1.981 0.22,4.07 0.22,6.27 0,11.293 -4.76,16.941 -14.3,16.941 -9.53,0 -14.3,-5.648 -14.3,-16.941 0,-2.2 0.08,-4.289 0.22,-6.27 0.15,-1.98 0.41,-4.367 0.77,-7.148 0.37,-2.789 0.81,-6.239 1.32,-10.34 0.52,-4.109 1.14,-9.352 1.87,-15.731 0.74,-6.382 1.58,-14.156 2.53,-23.32 0.96,-9.168 2.02,-20.277 3.19,-33.332 z m -3.52,-18.6992 c -10.7,0 -16.06,-5.0585 -16.06,-15.1796 0,-10.1211 5.36,-15.1797 16.06,-15.1797 10.12,0 15.18,5.0586 15.18,15.1797 0,10.1211 -5.06,15.1796 -15.18,15.1796 v 0" style="fill:#ffffff;fill-opacity:1;fill-rule:nonzero;stroke:none" id="path1650"></path><path d="m 1824.19,118.199 c 0,3.903 -0.75,7.25 -2.25,10.051 -1.5,2.797 -3.35,5.074 -5.55,6.824 -2.2,1.75 -4.52,3.024 -6.97,3.824 -2.45,0.801 -4.63,1.204 -6.53,1.204 -3.5,0 -6.57,-0.356 -9.22,-1.051 -2.65,-0.703 -4.95,-1.653 -6.9,-2.852 -1.95,-1.199 -3.6,-2.574 -4.95,-4.125 -1.35,-1.551 -2.43,-3.125 -3.23,-4.722 v 9.597 c 0,1.699 -0.2,2.75 -0.6,3.153 l -23.1,-5.551 v -4.199 h 2.25 c 5.8,0 8.7,-1.856 8.7,-5.551 V 84.1484 c 0,-4.8984 -3,-7.3476 -9,-7.3476 V 72 h 33.9 v 4.8008 c -7.7,0 -11.55,2.25 -11.55,6.75 v 28.5002 c 0,12.996 5.3,19.5 15.9,19.5 10.5,0 15.75,-7.301 15.75,-21.903 V 83.5508 c 0,-4.5 -3.45,-6.75 -10.35,-6.75 V 72 h 34.05 v 4.8008 c -6.9,0 -10.35,2.0508 -10.35,6.1484 z m 45.38,19.352 c -4.15,-1.703 -7.75,-4.125 -10.8,-7.278 -3.05,-3.148 -5.48,-6.972 -7.28,-11.472 -1.8,-4.5 -2.7,-9.551 -2.7,-15.153 0,-4.6988 0.8,-9.148 2.4,-13.3472 1.6,-4.1992 3.85,-7.875 6.75,-11.0313 2.9,-3.1484 6.43,-5.6484 10.58,-7.5 4.15,-1.8398 8.72,-2.7695 13.72,-2.7695 4.4,0 8.63,0.8516 12.68,2.5508 4.05,1.6992 7.6,4.1211 10.65,7.2695 3.05,3.1563 5.5,6.9805 7.35,11.4805 1.85,4.5 2.77,9.5469 2.77,15.1482 0,4.699 -0.8,9.153 -2.4,13.352 -1.6,4.199 -3.85,7.875 -6.75,11.023 -2.9,3.153 -6.37,5.649 -10.42,7.5 -4.05,1.852 -8.48,2.778 -13.28,2.778 -4.7,0 -9.12,-0.852 -13.27,-2.551 z m 22.57,-6.668 c 2.5,-2.442 4.43,-5.461 5.78,-9.055 1.35,-3.59 2.22,-7.48 2.62,-11.668 0.4,-4.191 0.6,-7.98 0.6,-11.3709 0,-1.7969 -0.17,-4.0899 -0.52,-6.8828 -0.35,-2.793 -1.15,-5.461 -2.4,-8.004 -1.25,-2.5468 -3.1,-4.7421 -5.55,-6.582 -2.45,-1.8515 -5.73,-2.7695 -9.83,-2.7695 -4.3,0 -7.72,1.2187 -10.27,3.668 -2.55,2.4375 -4.5,5.457 -5.85,9.0468 -1.35,3.5938 -2.23,7.461 -2.63,11.5977 -0.4,4.1407 -0.6,7.9567 -0.6,11.4497 0,1.792 0.18,4.062 0.53,6.804 0.35,2.742 1.17,5.41 2.47,8.004 1.3,2.594 3.2,4.813 5.7,6.66 2.5,1.848 5.85,2.77 10.05,2.77 4.1,0 7.4,-1.223 9.9,-3.668 z m 56.25,29.765 -4.8,-0.597 c -0.6,-3 -1.45,-5.875 -2.55,-8.625 -1.1,-2.754 -2.4,-5.227 -3.9,-7.426 -1.5,-2.199 -3.25,-4.027 -5.25,-5.477 -2,-1.449 -4.2,-2.375 -6.6,-2.773 l -0.6,-4.801 h 10.35 V 85.3516 c 0,-5.5 1.53,-9.5 4.58,-12 3.05,-2.5 7.17,-3.75 12.37,-3.75 3.3,0 6.13,0.4492 8.48,1.3476 2.35,0.9024 4.32,2.1719 5.92,3.8203 1.6,1.6524 2.9,3.6289 3.9,5.9297 1,2.3008 1.8,4.8516 2.4,7.6524 l -3.6,1.1992 c -0.6,-3.3008 -2.12,-6.0274 -4.57,-8.1758 -2.45,-2.1562 -5.18,-3.2266 -8.18,-3.2266 -2,0 -3.52,0.3204 -4.57,0.9727 -1.05,0.6484 -1.83,1.5039 -2.33,2.5547 -0.5,1.0508 -0.8,2.2226 -0.9,3.5234 -0.1,1.3008 -0.15,2.5508 -0.15,3.75 v 41.9998 h 20.1 v 7.199 c -1,-0.296 -2.1,-0.574 -3.3,-0.824 -1.2,-0.25 -2.55,-0.375 -4.05,-0.375 h -12.75 z m 111.9,-19.949 -25.5,-5.551 v -4.199 c 8.1,0 12.15,-2.051 12.15,-6.148 V 69 c 0,-11.8008 -2.8,-17.6992 -8.4,-17.6992 -1.1,0 -1.8,0.4492 -2.1,1.3476 -0.3,0.9024 -0.55,1.8711 -0.75,2.9219 -0.2,1.0508 -0.52,2.0313 -0.97,2.9297 -0.45,0.8984 -1.43,1.3516 -2.93,1.3516 -4.5,0 -6.75,-2.25 -6.75,-6.75 0,-6 3.45,-9 10.35,-9 3.6,0 6.93,0.8476 9.98,2.5468 3.05,1.7032 5.67,3.9532 7.87,6.75 2.2,2.8008 3.93,5.9219 5.18,9.3711 1.25,3.4493 1.87,6.9297 1.87,10.4297 z m -15.75,26.699 c 0,-6.5 2.85,-9.75 8.55,-9.75 6,0 9,3.25 9,9.75 0,6.098 -2.8,9.153 -8.4,9.153 -6.1,0 -9.15,-3.055 -9.15,-9.153 z m 101.1,-29.25 -25.5,-1.796 0.6,-4.204 c 7.7,0 11.55,-1.796 11.55,-5.398 V 94.5 c -3.1,-10.9023 -9,-16.3516 -17.7,-16.3516 -3.3,0 -5.87,0.5235 -7.72,1.5704 -1.85,1.0546 -3.18,2.4804 -3.98,4.2812 -0.8,1.8008 -1.27,3.8477 -1.42,6.1484 -0.15,2.3008 -0.23,4.75 -0.23,7.3516 v 40.648 l -24.3,-1.796 0.6,-4.204 c 6.9,0 10.35,-1.796 10.35,-5.398 V 94.5 c 0,-4.7031 0.4,-8.6016 1.2,-11.6992 0.8,-3.1016 2.1,-5.6016 3.9,-7.5 1.8,-1.9024 4.13,-3.2305 6.98,-3.9805 2.85,-0.75 6.32,-1.1211 10.42,-1.1211 3.3,0 6.1,0.25 8.4,0.75 2.3,0.5 4.33,1.25 6.08,2.25 1.75,1 3.25,2.2227 4.5,3.6719 1.25,1.4492 2.42,3.0781 3.52,4.8789 v -6.1484 c 0,-2.1016 0.2,-3.5 0.6,-4.2032 l 24.3,3 -1.2,4.3516 c -7.3,0.3984 -10.95,2.3984 -10.95,6 z m 68.25,-19.347 c 0,5.797 -1,12.656 -3,20.566 -1.2,-0.387 -2.32,-0.847 -3.37,-1.383 -1.05,-0.531 -1.98,-1.089 -2.78,-1.671 -4.3,2.421 -8.75,3.636 -13.35,3.636 -3.8,0 -7.08,-0.523 -9.82,-1.57 -2.76,-1.051 -5.03,-2.473 -6.83,-4.266 -1.8,-1.797 -3.13,-3.918 -3.97,-6.363 -0.86,-2.445 -1.28,-5.062 -1.28,-7.859 0,-2.895 0.72,-5.414 2.18,-7.555 1.44,-2.148 3.27,-4.02 5.47,-5.617 2.2,-1.594 4.58,-2.965 7.13,-4.114 2.55,-1.148 4.92,-2.07 7.12,-2.7691 2.8,-0.9961 5.27,-1.9218 7.43,-2.7695 2.14,-0.8476 3.92,-1.7969 5.32,-2.8437 1.4,-1.0508 2.48,-2.2696 3.23,-3.668 0.75,-1.3945 1.12,-3.1445 1.12,-5.2383 0,-6.8867 -4.45,-10.3281 -13.35,-10.3281 -2.6,0 -4.95,0.3203 -7.05,0.9726 -2.1,0.6485 -4,1.75 -5.7,3.3008 -1.7,1.543 -3.25,3.586 -4.65,6.1289 -1.4,2.5469 -2.7,5.7657 -3.9,9.6563 h -4.35 c 0,-4.4922 0.2,-8.7071 0.6,-12.6485 0.4,-3.9492 1.05,-8.0078 1.95,-12.1992 4,0.4024 7.2,1.6016 9.6,3.6016 4,-2.8008 8.7,-4.1992 14.1,-4.1992 3,0.3984 5.87,1.1797 8.63,2.3203 2.74,1.1484 5.12,2.6289 7.12,4.4297 2,1.7968 3.6,3.9726 4.8,6.5234 1.2,2.5508 1.8,5.4219 1.8,8.625 0,3.6016 -0.97,6.625 -2.92,9.074 -1.95,2.449 -4.38,4.551 -7.28,6.301 -2.9,1.746 -6.07,3.273 -9.52,4.574 -3.45,1.301 -6.63,2.574 -9.53,3.824 -2.9,1.25 -5.32,2.625 -7.27,4.125 -1.95,1.5 -2.93,3.301 -2.93,5.403 0,3.695 1.22,6.347 3.68,7.949 2.44,1.598 5.27,2.398 8.47,2.398 8.1,0 14.6,-5.449 19.5,-16.347 z m 36.75,41.847 -4.8,-0.597 c -0.6,-3 -1.45,-5.875 -2.55,-8.625 -1.1,-2.754 -2.4,-5.227 -3.9,-7.426 -1.5,-2.199 -3.25,-4.027 -5.25,-5.477 -2,-1.449 -4.2,-2.375 -6.6,-2.773 l -0.6,-4.801 h 10.35 V 85.3516 c 0,-5.5 1.52,-9.5 4.57,-12 3.05,-2.5 7.18,-3.75 12.38,-3.75 3.3,0 6.12,0.4492 8.47,1.3476 2.35,0.9024 4.33,2.1719 5.93,3.8203 1.6,1.6524 2.9,3.6289 3.9,5.9297 1,2.3008 1.8,4.8516 2.4,7.6524 l -3.6,1.1992 c -0.6,-3.3008 -2.13,-6.0274 -4.58,-8.1758 -2.45,-2.1562 -5.17,-3.2266 -8.17,-3.2266 -2,0 -3.53,0.3204 -4.58,0.9727 -1.05,0.6484 -1.82,1.5039 -2.32,2.5547 -0.5,1.0508 -0.8,2.2226 -0.9,3.5234 -0.1,1.3008 -0.15,2.5508 -0.15,3.75 v 41.9998 h 20.1 v 7.199 c -1,-0.296 -2.1,-0.574 -3.3,-0.824 -1.2,-0.25 -2.55,-0.375 -4.05,-0.375 h -12.75 z m 108.97,-23.097 c -4.15,-1.703 -7.75,-4.125 -10.8,-7.278 -3.05,-3.148 -5.47,-6.972 -7.27,-11.472 -1.8,-4.5 -2.7,-9.551 -2.7,-15.153 0,-4.6988 0.8,-9.148 2.4,-13.3472 1.6,-4.1992 3.85,-7.875 6.75,-11.0313 2.9,-3.1484 6.42,-5.6484 10.57,-7.5 4.15,-1.8398 8.73,-2.7695 13.73,-2.7695 4.4,0 8.62,0.8516 12.67,2.5508 4.05,1.6992 7.6,4.1211 10.65,7.2695 3.05,3.1563 5.5,6.9805 7.35,11.4805 1.85,4.5 2.78,9.5469 2.78,15.1482 0,4.699 -0.8,9.153 -2.4,13.352 -1.6,4.199 -3.85,7.875 -6.75,11.023 -2.9,3.153 -6.38,5.649 -10.43,7.5 -4.05,1.852 -8.47,2.778 -13.27,2.778 -4.7,0 -9.13,-0.852 -13.28,-2.551 z m 22.58,-6.668 c 2.5,-2.442 4.42,-5.461 5.77,-9.055 1.35,-3.59 2.23,-7.48 2.63,-11.668 0.4,-4.191 0.6,-7.98 0.6,-11.3709 0,-1.7969 -0.18,-4.0899 -0.53,-6.8828 -0.35,-2.793 -1.15,-5.461 -2.4,-8.004 -1.25,-2.5468 -3.1,-4.7421 -5.55,-6.582 -2.45,-1.8515 -5.72,-2.7695 -9.82,-2.7695 -4.3,0 -7.73,1.2187 -10.28,3.668 -2.55,2.4375 -4.5,5.457 -5.85,9.0468 -1.35,3.5938 -2.22,7.461 -2.62,11.5977 -0.4,4.1407 -0.6,7.9567 -0.6,11.4497 0,1.792 0.17,4.062 0.52,6.804 0.35,2.742 1.18,5.41 2.48,8.004 1.3,2.594 3.2,4.813 5.7,6.66 2.5,1.848 5.85,2.77 10.05,2.77 4.1,0 7.4,-1.223 9.9,-3.668 z m 79.8,-1.133 c -0.4,-0.699 -0.6,-1.949 -0.6,-3.75 0,-4 2.2,-6 6.6,-6 4.9,0 7.35,3.051 7.35,9.148 0,7.301 -4.05,10.954 -12.15,10.954 -2.2,0 -4.33,-0.579 -6.38,-1.727 -2.05,-1.152 -3.9,-2.551 -5.55,-4.199 -1.65,-1.653 -3.02,-3.403 -4.12,-5.25 -1.1,-1.852 -1.8,-3.43 -2.1,-4.727 l -0.75,0.602 v 15.301 c -8,-1.704 -16.1,-3.356 -24.3,-4.954 v -4.199 c 7.3,0 10.95,-3.851 10.95,-11.551 V 85.9492 c 0,-6.0976 -3.45,-9.1484 -10.35,-9.1484 V 72 h 35.85 v 4.8008 c -8.1,0 -12.15,2.8476 -12.15,8.5508 v 17.0974 c 0.1,2.199 0.32,4.852 0.67,7.949 0.35,3.098 1.05,6.079 2.1,8.926 1.05,2.852 2.5,5.301 4.35,7.352 1.85,2.047 4.38,3.074 7.58,3.074 z m 46.35,-49.1992 c -4.2,0 -7.23,0.4726 -9.08,1.4258 -1.85,0.9492 -2.77,2.5703 -2.77,4.875 0,3.7968 2.65,5.9453 7.95,6.4492 3.4,-0.8008 5.85,-1.1992 7.35,-1.1992 10.8,0 18.55,1.9492 23.25,5.8476 4.7,3.9028 7.05,10.0508 7.05,18.4488 0,1.801 -0.35,3.75 -1.05,5.852 -0.7,2.102 -1.75,4 -3.15,5.699 1.6,1.899 3.55,3 5.85,3.301 1.3,-1.602 3.05,-2.398 5.25,-2.398 3.4,0 5.1,2.046 5.1,6.148 0,3.801 -2.21,5.699 -6.62,5.699 -2.6,0 -5.04,-0.551 -7.29,-1.648 -2.26,-1.102 -4.29,-3 -6.09,-5.699 -5.41,4.5 -11.68,6.75 -18.79,6.75 -4.51,0 -8.47,-0.629 -11.88,-1.875 -3.41,-1.254 -6.26,-2.977 -8.57,-5.176 -2.31,-2.203 -4.03,-4.727 -5.19,-7.574 -1.15,-2.852 -1.72,-5.879 -1.72,-9.079 0,-9.5 4.05,-16.398 12.15,-20.6988 -1.8,0 -3.48,-0.375 -5.03,-1.125 -1.55,-0.75 -2.9,-1.75 -4.05,-3 -1.15,-1.25 -2.05,-2.6758 -2.7,-4.2734 -0.65,-1.6016 -0.97,-3.25 -0.97,-4.9492 0,-6.4024 3.4,-10.4532 10.2,-12.1524 -9.2,-2.8984 -13.8,-7.3476 -13.8,-13.3476 0,-4.7032 2.07,-8.2032 6.22,-10.5 4.15,-2.3008 9.48,-3.4532 15.98,-3.4532 h 16.05 c 3.9,0 7.5,0.4532 10.8,1.3516 3.3,0.8984 6.12,2.1992 8.47,3.8984 2.35,1.7032 4.2,3.75 5.55,6.1524 1.35,2.3984 2.03,5.0976 2.03,8.0976 0,3.2032 -0.58,5.9532 -1.73,8.25 -1.15,2.3008 -2.75,4.1719 -4.8,5.6211 -2.05,1.4493 -4.42,2.5313 -7.12,3.2305 -2.7,0.6992 -5.6,1.0508 -8.7,1.0508 z m 20.4,32.7622 c 0,-10.141 -4.88,-15.2114 -14.63,-15.2114 -8.95,0 -13.42,6.7264 -13.42,20.1794 0,11.344 4.67,17.02 14.02,17.02 9.35,0 14.03,-7.332 14.03,-21.988 z M 2519.59,69 c 12.6,0 18.9,-2.8516 18.9,-8.5508 0,-8.5 -6.6,-12.75 -19.8,-12.75 h -4.65 c -5.8,0 -10.38,1.0313 -13.73,3.0703 -3.35,2.0586 -5.02,5.0313 -5.02,8.9297 0,2.8008 0.95,4.8711 2.85,6.2227 1.9,1.3476 4.6,2.3789 8.1,3.0781 z m 95.7,49.801 c 0,7.597 -1.86,13.051 -5.57,16.347 -3.71,3.301 -9.98,4.954 -18.81,4.954 -3.31,0 -6.54,-0.504 -9.7,-1.5 -3.16,-1.004 -5.97,-2.329 -8.42,-3.977 -2.46,-1.648 -4.42,-3.578 -5.87,-5.773 -1.46,-2.204 -2.18,-4.555 -2.18,-7.051 0,-4.801 2,-7.199 6,-7.199 5.3,0 7.95,1.996 7.95,6 0,1.796 -0.4,3.398 -1.2,4.796 0,2.102 0.3,3.75 0.9,4.954 0.6,1.199 1.45,2.046 2.56,2.546 1.11,0.5 2.39,0.801 3.85,0.903 1.46,0.097 3.09,0.148 4.91,0.148 8.15,0 12.23,-5.25 12.23,-15.75 v -6.148 c -26.4,-4.801 -39.6,-13.5002 -39.6,-26.1018 0,-10.5 5.49,-15.75 16.5,-15.75 8.4,0 16.5,3.4492 24.3,10.3516 1.59,-6.9024 5.45,-10.3516 11.55,-10.3516 6.8,0 11.05,2.8516 12.75,8.5508 l -1.8,1.1992 c -1.7,-1.1992 -3.35,-1.8008 -4.95,-1.8008 -3.6,0 -5.4,2 -5.4,6 z m -12.75,-24.9026 c -0.21,-2 -0.61,-3.9726 -1.21,-5.9218 -0.61,-1.9532 -1.54,-3.7305 -2.79,-5.3282 -1.26,-1.5976 -2.89,-2.8789 -4.9,-3.8281 -2.01,-0.9492 -4.58,-1.4219 -7.7,-1.4219 -6.84,0 -10.25,3.4532 -10.25,10.3516 0,3.3008 0.77,6.0742 2.33,8.3242 1.56,2.25 3.62,4.0738 6.19,5.4768 2.56,1.398 5.43,2.496 8.6,3.301 3.16,0.796 6.41,1.398 9.73,1.796 z m 104.25,24.3006 c 0,3.903 -0.75,7.25 -2.25,10.051 -1.5,2.797 -3.36,5.074 -5.55,6.824 -2.21,1.75 -4.53,3.024 -6.98,3.824 -2.45,0.801 -4.63,1.204 -6.52,1.204 -3.51,0 -6.58,-0.356 -9.23,-1.051 -2.65,-0.703 -4.95,-1.653 -6.9,-2.852 -1.95,-1.199 -3.6,-2.574 -4.95,-4.125 -1.35,-1.551 -2.43,-3.125 -3.22,-4.722 v 9.597 c 0,1.699 -0.21,2.75 -0.6,3.153 l -23.1,-5.551 v -4.199 h 2.25 c 5.79,0 8.7,-1.856 8.7,-5.551 V 84.1484 c 0,-4.8984 -3,-7.3476 -9,-7.3476 V 72 h 33.9 v 4.8008 c -7.71,0 -11.55,2.25 -11.55,6.75 v 28.5002 c 0,12.996 5.29,19.5 15.9,19.5 10.5,0 15.75,-7.301 15.75,-21.903 V 83.5508 c 0,-4.5 -3.45,-6.75 -10.35,-6.75 V 72 h 34.05 v 4.8008 c -6.9,0 -10.35,2.0508 -10.35,6.1484 z m 49.65,21.903 -22.95,-4.954 v -4.199 c 6.39,0 9.6,-4.25 9.6,-12.75 V 86.5508 c 0,-6.5039 -3.66,-9.75 -10.95,-9.75 V 72 h 36.45 v 4.8008 c -8.1,0 -12.15,3.0508 -12.15,9.1484 z m -16.35,27.296 c 0,-6.5 2.85,-9.75 8.55,-9.75 6.09,0 9.15,3.25 9.15,9.75 0,6.098 -2.85,9.153 -8.55,9.153 -6.11,0 -9.15,-3.055 -9.15,-9.153 z m 96.59,-79.648 c -4.2,-6.4023 -9.9,-9.6016 -17.1,-9.6016 -3.6,0 -6.75,0.7735 -9.45,2.3282 -2.7,1.5468 -4.9,3.6953 -6.6,6.4492 -1.7,2.75 -2.97,5.9726 -3.82,9.6758 -0.85,3.6954 -1.28,7.6484 -1.28,11.8474 0,3 0.35,6.074 1.05,9.227 0.7,3.148 1.75,6.023 3.15,8.625 1.4,2.597 3.23,4.722 5.48,6.375 2.25,1.648 4.87,2.472 7.87,2.472 2.1,0 4.15,-0.48 6.15,-1.433 2,-0.961 3,-2.496 3,-4.613 0,-0.911 -0.1,-1.891 -0.3,-2.954 -0.2,-1.058 -0.3,-1.738 -0.3,-2.039 0,-4.839 2.2,-7.257 6.6,-7.257 2.2,0 4.18,0.769 5.93,2.324 1.75,1.547 2.62,3.375 2.62,5.472 0,2.2 -0.6,4.25 -1.8,6.153 -1.2,1.898 -2.77,3.523 -4.72,4.875 -1.95,1.347 -4.18,2.398 -6.68,3.148 -2.5,0.75 -5,1.125 -7.5,1.125 -5.9,0 -11.07,-0.996 -15.52,-2.996 -4.45,-1.996 -8.13,-4.664 -11.03,-8.008 -2.9,-3.34 -5.07,-7.257 -6.52,-11.75 -1.45,-4.488 -2.18,-9.226 -2.18,-14.218 0,-4.6918 0.68,-9.1059 2.03,-13.2465 1.35,-4.1407 3.3,-7.7578 5.85,-10.8516 2.55,-3.0898 5.67,-5.5195 9.37,-7.2578 3.7,-1.75 7.9,-2.6211 12.6,-2.6211 2.6,0 5.28,0.3008 8.03,0.8984 2.75,0.6016 5.37,1.5704 7.87,2.9219 2.5,1.3516 4.75,3.0508 6.75,5.1016 2,2.0469 3.55,4.5273 4.65,7.4297 z m 21,-41.25 c 6.9,3.6016 12.18,7.6992 15.83,12.3008 3.65,4.5976 5.47,10.1992 5.47,16.8008 0,10.1992 -4.25,15.2968 -12.75,15.2968 -6.5,0 -9.75,-3.4492 -9.75,-10.3476 0,-5.3008 3.05,-7.9492 9.15,-7.9492 2.4,0 3.6,-1.3008 3.6,-3.9024 0,-1.0976 -0.07,-2.2695 -0.22,-3.5273 -0.15,-1.2422 -0.68,-2.6211 -1.58,-4.1211 -0.9,-1.5 -2.3,-3.1524 -4.2,-4.9492 -1.9,-1.8008 -4.55,-3.8008 -7.95,-6 z m 114.6,135.449 -23.7,-4.801 v -4.347 c 6.9,0 10.35,-4.254 10.35,-12.75 V 95.1016 c 0,-9.4024 -0.6,-17.3008 -1.8,-23.7032 l 3.6,-1.1992 c 4.1,3.1992 6.55,6.0508 7.35,8.5508 5.5,-5.6992 13.2,-8.5508 23.1,-8.5508 4.6,0 8.85,0.9492 12.75,2.8516 3.9,1.8984 7.22,4.5195 9.98,7.875 2.74,3.3476 4.89,7.2734 6.45,11.7734 1.54,4.5 2.32,9.3518 2.32,14.5508 0,4.598 -0.75,8.898 -2.25,12.898 -1.5,4 -3.58,7.477 -6.22,10.426 -2.66,2.949 -5.81,5.274 -9.45,6.977 -3.66,1.699 -7.58,2.551 -11.78,2.551 -8.6,0 -15.5,-4.254 -20.7,-12.75 z m -0.6,-75.301 c 0,2.704 0.17,5.528 0.53,8.477 0.34,2.949 1.12,5.699 2.32,8.25 1.2,2.551 2.9,4.648 5.1,6.301 2.2,1.648 5.2,2.472 9,2.472 4.2,0 7.62,-0.972 10.28,-2.921 2.64,-1.954 4.74,-4.403 6.3,-7.352 1.54,-2.949 2.62,-6.227 3.22,-9.824 0.6,-3.602 0.9,-7.051 0.9,-10.352 0,-3.3006 -0.35,-6.5506 -1.05,-9.7498 -0.7,-3.1992 -1.8,-6.0508 -3.3,-8.5508 -1.5,-2.5 -3.4,-4.5273 -5.7,-6.0781 -2.3,-1.5508 -5,-2.3203 -8.1,-2.3203 -4.5,0 -8.02,0.9492 -10.57,2.8516 -2.55,1.8984 -4.5,4.2226 -5.85,6.9726 -1.35,2.75 -2.21,5.6758 -2.55,8.7774 -0.36,3.0976 -0.53,5.7968 -0.53,8.0974 z m 124.95,1.204 c 0.4,0.695 0.6,1.894 0.6,3.597 -0.7,6.199 -2.08,11.176 -4.13,14.926 -2.05,3.75 -4.45,6.648 -7.2,8.699 -2.75,2.051 -5.7,3.399 -8.85,4.051 -3.15,0.648 -6.12,0.977 -8.92,0.977 -4.7,0 -8.98,-1.028 -12.83,-3.079 -3.85,-2.05 -7.12,-4.75 -9.82,-8.097 -2.7,-3.352 -4.78,-7.227 -6.23,-11.625 -1.45,-4.403 -2.17,-8.953 -2.17,-13.653 0,-4.7964 0.7,-9.2496 2.1,-13.3472 1.4,-4.1016 3.45,-7.6524 6.15,-10.6524 2.7,-3 6.05,-5.3281 10.05,-6.9765 4,-1.6524 8.65,-2.4727 13.95,-2.4727 13,0 22.3,5.8516 27.9,17.5508 l -3.6,2.5508 c -2.4,-3.3008 -5.23,-6.0547 -8.48,-8.25 -3.25,-2.1992 -7.12,-3.3008 -11.62,-3.3008 -3.4,0 -6.48,0.6719 -9.23,2.0234 -2.75,1.3516 -5.1,3.1993 -7.05,5.5508 -1.95,2.3477 -3.45,5.1485 -4.5,8.4024 -1.05,3.2461 -1.57,6.8244 -1.57,10.7224 0,1.598 1,2.403 3,2.403 z m -41.85,4.796 c -2.4,0 -3.6,0.653 -3.6,1.954 0,2.496 0.37,4.949 1.12,7.347 0.75,2.403 1.85,4.524 3.3,6.375 1.45,1.852 3.18,3.352 5.18,4.5 2,1.149 4.25,1.727 6.75,1.727 4.5,0 7.95,-1.477 10.35,-4.426 2.4,-2.949 3.8,-6.523 4.2,-10.727 0,-4.5 -2.2,-6.75 -6.6,-6.75 z m 75.3,48 -4.8,-0.597 c -0.6,-3 -1.45,-5.875 -2.55,-8.625 -1.1,-2.754 -2.4,-5.227 -3.9,-7.426 -1.5,-2.199 -3.25,-4.027 -5.25,-5.477 -2,-1.449 -4.2,-2.375 -6.6,-2.773 l -0.6,-4.801 h 10.35 V 85.3516 c 0,-5.5 1.52,-9.5 4.57,-12 3.05,-2.5 7.18,-3.75 12.38,-3.75 3.3,0 6.12,0.4492 8.47,1.3476 2.35,0.9024 4.33,2.1719 5.93,3.8203 1.6,1.6524 2.9,3.6289 3.9,5.9297 1,2.3008 1.8,4.8516 2.4,7.6524 l -3.6,1.1992 c -0.6,-3.3008 -2.13,-6.0274 -4.58,-8.1758 -2.45,-2.1562 -5.17,-3.2266 -8.17,-3.2266 -2,0 -3.53,0.3204 -4.58,0.9727 -1.05,0.6484 -1.82,1.5039 -2.32,2.5547 -0.5,1.0508 -0.8,2.2226 -0.9,3.5234 -0.1,1.3008 -0.15,2.5508 -0.15,3.75 v 41.9998 h 20.1 v 7.199 c -1,-0.296 -2.1,-0.574 -3.3,-0.824 -1.2,-0.25 -2.55,-0.375 -4.05,-0.375 h -12.75 z m 51.9,0 -4.8,-0.597 c -0.6,-3 -1.45,-5.875 -2.55,-8.625 -1.11,-2.754 -2.4,-5.227 -3.9,-7.426 -1.5,-2.199 -3.25,-4.027 -5.25,-5.477 -2.01,-1.449 -4.2,-2.375 -6.6,-2.773 l -0.6,-4.801 h 10.35 V 85.3516 c 0,-5.5 1.52,-9.5 4.57,-12 3.05,-2.5 7.18,-3.75 12.38,-3.75 3.3,0 6.12,0.4492 8.47,1.3476 2.35,0.9024 4.33,2.1719 5.93,3.8203 1.59,1.6524 2.9,3.6289 3.9,5.9297 0.99,2.3008 1.8,4.8516 2.4,7.6524 l -3.6,1.1992 c -0.6,-3.3008 -2.13,-6.0274 -4.58,-8.1758 -2.45,-2.1562 -5.17,-3.2266 -8.17,-3.2266 -2.01,0 -3.53,0.3204 -4.58,0.9727 -1.05,0.6484 -1.82,1.5039 -2.32,2.5547 -0.51,1.0508 -0.81,2.2226 -0.9,3.5234 -0.1,1.3008 -0.15,2.5508 -0.15,3.75 v 41.9998 h 20.1 v 7.199 c -1,-0.296 -2.1,-0.574 -3.3,-0.824 -1.2,-0.25 -2.55,-0.375 -4.05,-0.375 h -12.75 z m 92.25,-52.796 c 0.39,0.695 0.6,1.894 0.6,3.597 -0.71,6.199 -2.08,11.176 -4.13,14.926 -2.05,3.75 -4.45,6.648 -7.2,8.699 -2.75,2.051 -5.7,3.399 -8.85,4.051 -3.15,0.648 -6.13,0.977 -8.92,0.977 -4.71,0 -8.98,-1.028 -12.83,-3.079 -3.85,-2.05 -7.12,-4.75 -9.82,-8.097 -2.7,-3.352 -4.78,-7.227 -6.23,-11.625 -1.45,-4.403 -2.17,-8.953 -2.17,-13.653 0,-4.7964 0.69,-9.2496 2.1,-13.3472 1.39,-4.1016 3.45,-7.6524 6.15,-10.6524 2.7,-3 6.04,-5.3281 10.05,-6.9765 3.99,-1.6524 8.64,-2.4727 13.95,-2.4727 12.99,0 22.29,5.8516 27.9,17.5508 l -3.6,2.5508 c -2.4,-3.3008 -5.23,-6.0547 -8.48,-8.25 -3.25,-2.1992 -7.12,-3.3008 -11.62,-3.3008 -3.41,0 -6.48,0.6719 -9.23,2.0234 -2.75,1.3516 -5.1,3.1993 -7.05,5.5508 -1.95,2.3477 -3.45,5.1485 -4.5,8.4024 -1.05,3.2461 -1.57,6.8244 -1.57,10.7224 0,1.598 0.99,2.403 3,2.403 z m -41.85,4.796 c -2.4,0 -3.6,0.653 -3.6,1.954 0,2.496 0.37,4.949 1.12,7.347 0.75,2.403 1.85,4.524 3.3,6.375 1.45,1.852 3.17,3.352 5.18,4.5 1.99,1.149 4.24,1.727 6.75,1.727 4.5,0 7.95,-1.477 10.35,-4.426 2.4,-2.949 3.79,-6.523 4.2,-10.727 0,-4.5 -2.21,-6.75 -6.6,-6.75 z m 98.84,17.102 c -0.4,-0.699 -0.6,-1.949 -0.6,-3.75 0,-4 2.2,-6 6.6,-6 4.9,0 7.35,3.051 7.35,9.148 0,7.301 -4.05,10.954 -12.15,10.954 -2.2,0 -4.32,-0.579 -6.37,-1.727 -2.05,-1.152 -3.9,-2.551 -5.55,-4.199 -1.65,-1.653 -3.03,-3.403 -4.13,-5.25 -1.1,-1.852 -1.8,-3.43 -2.1,-4.727 l -0.75,0.602 v 15.301 c -8,-1.704 -16.1,-3.356 -24.3,-4.954 v -4.199 c 7.3,0 10.95,-3.851 10.95,-11.551 V 85.9492 c 0,-6.0976 -3.45,-9.1484 -10.35,-9.1484 V 72 h 35.85 v 4.8008 c -8.1,0 -12.15,2.8476 -12.15,8.5508 v 17.0974 c 0.1,2.199 0.33,4.852 0.68,7.949 0.35,3.098 1.05,6.079 2.1,8.926 1.05,2.852 2.5,5.301 4.35,7.352 1.85,2.047 4.37,3.074 7.57,3.074 z m 54.9,-12.211 c 1.62,13.055 3.01,24.164 4.18,33.332 1.18,9.164 2.2,16.938 3.08,23.32 0.88,6.379 1.62,11.622 2.2,15.731 0.59,4.101 1.03,7.551 1.32,10.34 0.3,2.781 0.52,5.168 0.66,7.148 0.15,1.981 0.22,4.07 0.22,6.27 0,11.293 -4.76,16.941 -14.3,16.941 -9.53,0 -14.3,-5.648 -14.3,-16.941 0,-2.2 0.08,-4.289 0.22,-6.27 0.15,-1.98 0.41,-4.367 0.77,-7.148 0.37,-2.789 0.81,-6.239 1.32,-10.34 0.52,-4.109 1.14,-9.352 1.87,-15.731 0.74,-6.382 1.58,-14.156 2.53,-23.32 0.96,-9.168 2.02,-20.277 3.19,-33.332 z m -3.52,-18.6992 c -10.7,0 -16.06,-5.0585 -16.06,-15.1796 0,-10.1211 5.36,-15.1797 16.06,-15.1797 10.12,0 15.18,5.0586 15.18,15.1797 0,10.1211 -5.06,15.1796 -15.18,15.1796 z" style="fill:none;stroke:#ffffff;stroke-width:6;stroke-linecap:butt;stroke-linejoin:miter;stroke-miterlimit:4;stroke-dasharray:none;stroke-opacity:1" id="path1652"></path></g></g></svg> 