<svg xmlns="http://www.w3.org/2000/svg" xmlns:xlink="http://www.w3.org/1999/xlink" id="Layer_1" x="0px" y="0px" viewBox="0 0 121.97 115" style="enable-background:new 0 0 121.97 115;" xml:space="preserve"> <style type="text/css"> .st0{fill:#CC1518;} .st1{fill:#FFFFFF;} .st2{fill:none;stroke:#FFFFFF;} .st3{fill:none;stroke:#FFFFFF;stroke-width:0.5;stroke-linecap:round;} .st4{fill:none;stroke:#3C3C3B;stroke-width:0.5;} .st5{fill:#3C3C3B;} </style> <g> <path class="st0" d="M63.5,102c24.58,0,44.5-19.92,44.5-44.5C108,32.92,88.08,13,63.5,13C38.92,13,19,32.92,19,57.5 C19,82.08,38.92,102,63.5,102L63.5,102z"></path> <path class="st1" d="M38.62,57.92c0,5.59,1.66,9.22,5.23,9.22c2.9,0,4.75-4.1,4.75-9.22s-1.32-9.24-4.56-9.24 C40.81,48.68,38.62,52.33,38.62,57.92L38.62,57.92z M40.86,57.95c0-4.49,1.39-8.23,3.34-8.23c2.33,0,3.38,3.74,3.38,8.23 c0,4.51-1.42,8.09-3.38,8.09C42.25,66.04,40.86,62.46,40.86,57.95L40.86,57.95z M57.46,49.86c0.41,0,0.67-0.07,0.67-0.48 s-0.26-0.48-0.67-0.48h-7.1c-0.41,0-0.67,0.07-0.67,0.48s0.26,0.48,0.67,0.48h2.59v16.37c0,0.41,0.22,0.67,0.62,0.67h0.74 c0.38,0,0.55-0.26,0.55-0.67V49.86H57.46L57.46,49.86z M67.35,49.86c0.41,0,0.67-0.07,0.67-0.48s-0.26-0.48-0.67-0.48h-7.1 c-0.41,0-0.67,0.07-0.67,0.48s0.26,0.48,0.67,0.48h2.59v16.37c0,0.41,0.22,0.67,0.62,0.67h0.74c0.38,0,0.55-0.26,0.55-0.67V49.86 H67.35L67.35,49.86z M75.01,60.28c0.41,0,0.67-0.07,0.67-0.48c0-0.41-0.26-0.48-0.67-0.48h-2.78v-8.78c0-0.41,0.17-0.67,0.55-0.67 h2.95c0.41,0,0.67-0.05,0.67-0.46c0-0.41-0.26-0.5-0.67-0.5h-4.87c-0.38,0-0.55,0.26-0.55,0.67v16.66c0,0.41,0.22,0.67,0.62,0.67 h5.28c0.41,0,0.67-0.1,0.67-0.5c0-0.41-0.26-0.46-0.67-0.46h-3.36c-0.41,0-0.62-0.31-0.62-0.72v-4.94H75.01L75.01,60.28z M84.39,59.53c1.68-1.25,4.22-3.79,4.22-6.77c0-2.66-1.49-3.86-4.46-3.86h-3.72c-0.38,0-0.55,0.26-0.55,0.67v16.66 c0,0.41,0.22,0.67,0.62,0.67h0.74c0.38,0,0.55-0.26,0.55-0.67v-15.7c0-0.41,0.17-0.67,0.55-0.67h0.98c2.02,0,3.17,0.89,3.17,2.86 c0,4.75-3.86,6.98-3.86,7.51c0,0.12,0.05,0.22,0.1,0.31l3.58,5.81c0.22,0.38,0.41,0.55,0.82,0.55h1.06c0.26,0,0.38-0.14,0.38-0.34 c0-0.12-0.12-0.38-0.22-0.53L84.39,59.53L84.39,59.53z"></path> <path class="st1" d="M53.17,37.53c1.68-1.25,4.22-3.79,4.22-6.77c0-2.66-1.49-3.86-4.46-3.86h-3.72c-0.38,0-0.55,0.26-0.55,0.67 v16.66c0,0.41,0.22,0.67,0.62,0.67h0.74c0.38,0,0.55-0.26,0.55-0.67v-15.7c0-0.41,0.17-0.67,0.55-0.67h0.98 c2.02,0,3.17,0.89,3.17,2.86c0,4.75-3.86,6.98-3.86,7.51c0,0.12,0.05,0.22,0.1,0.31l3.58,5.81c0.22,0.38,0.41,0.55,0.82,0.55h1.06 c0.26,0,0.38-0.14,0.38-0.34c0-0.12-0.12-0.38-0.22-0.53L53.17,37.53L53.17,37.53z M65.22,38.28c0.41,0,0.67-0.07,0.67-0.48 c0-0.41-0.26-0.48-0.67-0.48h-2.78v-8.78c0-0.41,0.17-0.67,0.55-0.67h2.95c0.41,0,0.67-0.05,0.67-0.46s-0.26-0.5-0.67-0.5h-4.87 c-0.38,0-0.55,0.26-0.55,0.67v16.66c0,0.41,0.22,0.67,0.62,0.67h5.28c0.41,0,0.67-0.1,0.67-0.5c0-0.41-0.26-0.46-0.67-0.46h-3.36 c-0.41,0-0.62-0.31-0.62-0.72v-4.94H65.22L65.22,38.28z M76.98,35.18c0,5.71-1.9,8.71-4.1,8.71c-0.41,0-0.62-0.26-0.62-0.67V28.53 c0-0.41,0.17-0.67,0.55-0.67h0.43C76.26,27.86,76.98,30.72,76.98,35.18L76.98,35.18z M79.06,35.23c0-5.04-1.82-8.33-5.78-8.33h-2.4 c-0.38,0-0.55,0.26-0.55,0.67v16.66c0,0.41,0.22,0.67,0.62,0.67h1.54C76.06,44.9,79.06,41.32,79.06,35.23L79.06,35.23z"></path> <path class="st1" d="M56.35,94.37c0,0,1.35-1.95,2.22-3.56c0.32-0.58,0.49-1.12,0.49-1.49c0-0.97-0.63-1.43-1.4-1.43 c-1.06,0-1.66,1.03-1.66,2.02c0,0.15,0.02,0.25,0.17,0.25s0.19-0.1,0.19-0.25c0-0.7,0.47-1.6,1.12-1.6c0.46,0,0.72,0.53,0.72,1.02 c0,0.4-0.1,0.79-0.32,1.2c-0.82,1.52-2.18,3.63-2.18,3.63s-0.21,0.31-0.21,0.39c0,0.09,0.03,0.2,0.26,0.2h2.65 c0.15,0,0.25-0.03,0.25-0.18c0-0.15-0.1-0.18-0.25-0.18H56.35L56.35,94.37z M59.96,91.36c0,2.1,0.62,3.46,1.96,3.46 c1.09,0,1.78-1.54,1.78-3.46s-0.49-3.46-1.71-3.46S59.96,89.27,59.96,91.36L59.96,91.36z M60.8,91.37c0-1.68,0.52-3.09,1.25-3.09 c0.87,0,1.27,1.4,1.27,3.09c0,1.69-0.53,3.03-1.27,3.03C61.32,94.41,60.8,93.06,60.8,91.37L60.8,91.37z M65.24,94.48 c0,0.15,0.08,0.25,0.23,0.25h0.28c0.14,0,0.21-0.1,0.21-0.25v-6.25c0-0.15-0.06-0.25-0.21-0.25h-0.28c-0.1,0-0.13,0.04-0.21,0.14 l-0.7,0.91c-0.03,0.04-0.05,0.08-0.05,0.12c0,0.03,0.02,0.05,0.05,0.07l0.3,0.25c0.03,0.02,0.04,0.03,0.06,0.03 c0.03,0,0.04-0.02,0.07-0.05l0.16-0.19c0.03-0.03,0.04-0.05,0.05-0.05c0.03,0,0.04,0.04,0.04,0.12V94.48L65.24,94.48z M68.08,91.56 c0-1.92,0.59-3.35,1.68-3.35c0.6,0,0.57,0.9,0.71,0.9c0.1,0,0.4-0.21,0.4-0.32c0-0.14-0.24-0.9-1.08-0.9 c-1.39,0-2.56,1.5-2.56,3.86c0,2.39,1.09,3.07,1.97,3.07c1.36,0,2.12-1.32,2.12-2.43c0-1.36-0.67-2.02-1.55-2.02 C68.66,90.37,68.08,91.56,68.08,91.56L68.08,91.56z M69.66,90.77c0.46,0,0.79,0.47,0.79,1.71c0,0.83-0.28,1.97-1.16,1.97 c-0.63,0-1.09-0.77-1.09-1.84C68.2,91.73,68.92,90.77,69.66,90.77L69.66,90.77z"></path> <path class="st2" d="M63.5,99.3c23.09,0,41.8-18.71,41.8-41.8c0-23.09-18.71-41.8-41.8-41.8c-23.09,0-41.8,18.71-41.8,41.8 C21.7,80.59,40.41,99.3,63.5,99.3L63.5,99.3z"></path> <path class="st1" d="M61.35,85.8h-1.36c0.03,0.07,0.08,0.14,0.15,0.19c0.1,0.07,0.2,0.11,0.32,0.11c0.16,0,0.3-0.08,0.43-0.23 l0.34,0.22c-0.1,0.13-0.22,0.24-0.36,0.31c-0.14,0.08-0.27,0.11-0.42,0.11c-0.25,0-0.46-0.09-0.64-0.27 c-0.18-0.18-0.27-0.4-0.27-0.64c0-0.25,0.09-0.47,0.27-0.65c0.18-0.18,0.4-0.27,0.64-0.27c0.25,0,0.47,0.09,0.65,0.27 c0.18,0.18,0.27,0.4,0.27,0.65C61.37,85.65,61.36,85.72,61.35,85.8L61.35,85.8L61.35,85.8z M60.05,85.29 c-0.02,0.03-0.04,0.06-0.06,0.1h0.92c-0.03-0.07-0.08-0.13-0.15-0.19c-0.09-0.07-0.19-0.11-0.31-0.11c-0.11,0-0.22,0.04-0.32,0.11 C60.1,85.23,60.07,85.26,60.05,85.29L60.05,85.29z M62.87,86.39c-0.14,0.08-0.3,0.13-0.47,0.13c-0.18,0-0.34-0.04-0.47-0.13 c-0.17-0.11-0.25-0.28-0.25-0.51h0.41c0,0.1,0.03,0.16,0.1,0.19h0c0.06,0.02,0.13,0.04,0.22,0.04c0.21,0,0.32-0.05,0.32-0.15 c0-0.06-0.07-0.11-0.2-0.14c-0.33-0.06-0.5-0.1-0.51-0.1c-0.21-0.08-0.31-0.24-0.31-0.47c0-0.18,0.08-0.32,0.24-0.42h0 c0.13-0.09,0.29-0.14,0.46-0.14c0.18,0,0.33,0.05,0.46,0.14h0c0.08,0.05,0.15,0.12,0.19,0.2c0.04,0.08,0.06,0.18,0.06,0.29h-0.41 c0-0.05-0.01-0.09-0.02-0.12c-0.02-0.03-0.04-0.05-0.07-0.06l0,0c-0.05-0.03-0.12-0.04-0.21-0.04c-0.08,0-0.15,0.01-0.21,0.04l0,0 c-0.06,0.03-0.09,0.06-0.09,0.11c0,0.07,0.07,0.11,0.2,0.14c0.16,0.03,0.29,0.06,0.37,0.07c0.08,0.02,0.13,0.03,0.14,0.03h0 c0.21,0.08,0.31,0.24,0.31,0.47C63.12,86.13,63.04,86.28,62.87,86.39L62.87,86.39L62.87,86.39z M64.12,85.15v1.84h-0.41v-1.84 h-0.32v-0.41h0.32v-0.37h0.41v0.37h0.32v0.41H64.12L64.12,85.15z M66.08,86.46V86.3c-0.15,0.14-0.34,0.21-0.55,0.21 c-0.25,0-0.45-0.09-0.62-0.28c-0.16-0.17-0.24-0.39-0.24-0.63c0-0.25,0.08-0.46,0.24-0.64c0.17-0.18,0.37-0.28,0.62-0.28 c0.22,0,0.4,0.07,0.55,0.22v-0.69h0.41v2.25H66.08L66.08,86.46z M65.93,85.24c-0.1-0.1-0.22-0.15-0.35-0.15 c-0.14,0-0.26,0.05-0.36,0.15c-0.1,0.1-0.15,0.22-0.15,0.36c0,0.14,0.05,0.26,0.15,0.36c0.1,0.1,0.22,0.15,0.36,0.15 c0.14,0,0.26-0.05,0.35-0.15c0.1-0.1,0.15-0.22,0.15-0.36C66.08,85.46,66.03,85.34,65.93,85.24L65.93,85.24L65.93,85.24z M67.32,86.39c-0.05,0.05-0.11,0.08-0.18,0.08c-0.07,0-0.13-0.02-0.18-0.08c-0.05-0.05-0.07-0.11-0.07-0.18 c0-0.07,0.02-0.13,0.07-0.18c0.05-0.05,0.11-0.08,0.18-0.08c0.07,0,0.14,0.03,0.18,0.08c0.05,0.05,0.07,0.11,0.07,0.18 C67.39,86.28,67.37,86.34,67.32,86.39L67.32,86.39z"></path> <path class="st3" d="M45.79,85.66h11.6 M69.62,85.66h11.6"></path> <path class="st1" d="M41.84,80.69l-0.34-2.57l3.48-0.46l-0.16-1.21l-3.48,0.46l-0.25-1.89l3.68-0.49l-0.17-1.26l-4.98,0.66 l0.92,6.93L41.84,80.69L41.84,80.69z M54.95,79.33l1.44-0.1l-3.6-6.78l-1.44,0.1l-2.66,7.2l1.43-0.1l0.51-1.36l3.65-0.25 L54.95,79.33L54.95,79.33z M53.66,76.87l-2.59,0.17l1.1-3.07L53.66,76.87L53.66,76.87z M66.18,79.02l-2.11-2.4 c1.33-0.26,1.77-1.23,1.78-2.2c0.01-1.22-0.86-2.32-2.51-2.34c-1.11,0.01-2.22-0.01-3.33-0.01l-0.03,7.01l1.32,0.01l0.01-2.34 l1.27,0.01l2.03,2.35l1.57,0.01L66.18,79.02L66.18,79.02z M63.34,73.32c0.83,0,1.2,0.57,1.2,1.13c0,0.56-0.37,1.12-1.21,1.12 l-2.01-0.01l0.01-2.25L63.34,73.32L63.34,73.32z M75.81,79.6l1.31,0.1l0.53-6.97l-1.5-0.11l-2.41,2.83l-1.96-3.16l-1.51-0.12 l-0.53,6.97l1.31,0.1l0.39-5.07l1.99,3.21l0.26,0.02l2.5-2.85L75.81,79.6L75.81,79.6z M87.54,75.17c-0.36-1.15-1.43-1.62-2.51-1.79 c-1.28-0.19-2.77,0.18-2.99,1.61c-0.24,1.55,1.01,2.13,2.4,2.51c0.9,0.24,1.55,0.61,1.45,1.26c-0.12,0.75-0.93,0.92-1.75,0.79 c-0.84-0.13-1.59-0.59-1.78-1.4l-1.17,0.4c0.32,1.34,1.34,1.94,2.75,2.16c1.54,0.24,3.01-0.22,3.24-1.76 c0.25-1.65-1.03-2.23-2.45-2.63c-0.82-0.23-1.5-0.5-1.41-1.11c0.08-0.51,0.61-0.85,1.57-0.7c0.75,0.12,1.35,0.59,1.52,1.02 L87.54,75.17L87.54,75.17z"></path> <path class="st4" d="M104.15,101.75c1.99,0,3.6-1.61,3.6-3.6c0-1.99-1.61-3.6-3.6-3.6c-1.99,0-3.6,1.61-3.6,3.6 C100.55,100.14,102.16,101.75,104.15,101.75L104.15,101.75z"></path> <path class="st5" d="M104.11,98.39c0.59,0,0.77,0.19,0.77,0.7v0.1c0,0.48,0.01,0.8,0.07,0.97h0.71c-0.04-0.23-0.06-0.59-0.06-0.96 v-0.1c0-0.53-0.16-0.85-0.58-1.01c0.34-0.12,0.65-0.39,0.65-0.96c0-0.72-0.54-1.1-1.3-1.1h-1.6v4.12h0.71v-1.76H104.11 L104.11,98.39z M103.49,96.61h0.79c0.39,0,0.67,0.17,0.67,0.58c0,0.5-0.34,0.62-0.79,0.62h-0.68V96.61L103.49,96.61z"></path> </g> </svg>